<?xml version="1.0" encoding="UTF-8"?><svg id="Guide" xmlns="http://www.w3.org/2000/svg" viewBox="0 0 50 50"><path d="m45.69,7.52c-.05-.9-.71-1.69-1.64-1.87-.55-.1-1.1-.2-1.65-.29.67-.95,1.34-1.89,2.01-2.84.71-.98-.7-2.13-1.52-1.26-1.17,1.19-2.29,2.42-3.4,3.67-1.28-.17-2.55-.31-3.84-.43-8.38-.79-16.87-.6-25.19.61-.96.14-1.64,1.02-1.53,1.99.12.99,1.01,1.69,2,1.57,5.39-.63,10.82-.92,16.22-.74,3.05.1,6.14.35,9.21.71-3.97,4.95-7.53,10.24-10.75,15.69-.85,1.45-1.67,2.9-2.47,4.37-1.82-3.48-4.39-6.54-7.61-8.89-1.84-1.26-3.88,1.3-2.22,2.81,1.71,1.49,3.39,3.46,4.63,5.42,1.29,1.97,2.28,4.11,2.95,6.36.5,1.8,3.21,2.02,3.99.3,4.19-8.36,8.97-16.56,14.13-24.39.26-.41.55-.8.82-1.21.61.09,1.21.2,1.81.3.2,5.41.2,10.89.02,16.31-.19,5.31-.61,10.6-1.34,15.8-10.41-.93-20.82-.91-31.23.06-1.74-11.17-2.06-22.56-2.24-33.85,0-1.23-1.83-1.33-1.98-.11-.35,3.04-.52,6.06-.69,9.11-.38,9.16-.22,18.35,1.09,27.46.16,1.1,1.19,1.88,2.3,1.73,11.35-1.16,22.98-1.14,34.33.05,1.13.14,2.18-.64,2.36-1.78,1-6.11,1.41-12.22,1.6-18.32.17-6.13.12-12.19-.19-18.33Z" style="fill:#1c1c1c;"/></svg>