<?xml version="1.0" encoding="UTF-8"?><svg id="Icon" xmlns="http://www.w3.org/2000/svg" viewBox="0 0 50 38.06"><path d="m48.25,6.97c-.94,4.25-2.33,8.51-4.31,12.4-2.09-.21-4.18-.34-6.26-.46-6.03-.29-12.06-.33-18.09-.12-.86.03-1.71.07-2.57.11-1.52-2.77-3.46-6.37-4.92-8.9-.45-.78-.9-1.56-1.35-2.33,2.72-.95,5.48-1.75,8.3-2.35,8.99-1.89,18.4-2.72,27.47-.93,0,0,2.44.6,2.44.6.97.31,1.49-1.09.57-1.5C37.47-1.74,21.16-.23,9.2,5.06c-.94-1.56-1.89-3.1-2.88-4.62-.2-.31-.57-.48-.95-.42C3.57.3,1.93.9.38,1.85c-.84.53-.13,1.83.77,1.4,1.16-.54,2.47-.93,3.76-1.1.89,1.7,1.78,3.4,2.66,5.11.04.12.1.23.17.33.64,1.24,1.28,2.47,1.9,3.73,1.59,3.18,3.16,6.39,4.79,9.58.43,2.74-.52,5.48-.9,8.12.13.95,1.01,1.61,1.96,1.47,2.12-.29,4.33-.51,6.51-.67,4.36-.32,8.74-.4,13.09-.09,2.18.16,4.33.46,6.44.87,1.83.31,2.41-2.32.65-2.83-8.09-2.08-16.5-1.95-24.76-.98.32-1.61.51-3.23.39-4.87,1.8.05,3.6.1,5.4.12,6.93.14,14.62.16,21.49.47.59.06,1.19-.23,1.47-.8,2.14-4.64,3.33-9.48,3.67-14.53.04-.98-1.39-1.15-1.59-.2Z" style="fill:#1c1c1c;"/><path d="m23.08,32.23c-.17,1.76-1.72,2.76-3.01,2.31-.65-.27-.95-.81-1.05-1.62,0-.64-.31-1.27-.97-1.5-2.76-.62-2.47,3.68-1.06,5.08,3.28,3.91,9.94-.26,7.61-4.77-.45-.73-1.57-.36-1.52.5Z" style="fill:#1c1c1c;"/><path d="m38.96,32.21c-.09,2.11-2.55,3.33-3.65,1.8-.28-.42-.35-1.14-.18-1.77.12-.55-.09-1.14-.58-1.49-2.62-1.36-3.38,3.21-2.26,4.91,2.77,5.08,10.66,1.15,8.19-3.97-.44-.74-1.6-.34-1.51.52Z" style="fill:#1c1c1c;"/><path d="m14.52,8.11c-.84.31-.44,1.6.42,1.39,1.41-.34,2.85-.69,4.29-1,4.3-.97,8.64-1.68,13.02-2.16.19-.02.35-.17.36-.37.01-.22-.15-.41-.37-.43-6-.33-12.05.61-17.72,2.57Z" style="fill:#1c1c1c;"/></svg>