<svg id="error" xmlns="http://www.w3.org/2000/svg" viewBox="0 0 276.21 300"><path d="M80.47,281.82c5.18-.25,9.79,2.09,14.54,3.53,3.43,1,4.25.37,4.51-3.05,1.48-19.54,3.64-39,8.51-58a33,33,0,0,1,2-6c1-2,1.62-5.24,4.59-4.56s2.33,3.78,2.14,6.08c-.3,3.62-.85,7.22-1.27,10.84-2.13,18.19-4.19,36.4-6.46,54.58-.35,2.84.48,3.61,3.11,3.94A148.05,148.05,0,0,0,133,290.56c2.5,0,3.47-.63,3.27-3.33-1.67-22.79.92-45.63-.63-68.43-.12-1.74,0-3.69,2.07-4.07,2.36-.43,3,1.62,3.46,3.4,2.27,8.2,2.12,16.65,2.19,25,.12,14.28-.06,28.56-.3,42.84-.06,3.18.66,4.13,4,3.5,5.91-1.11,11.79-2.32,17.67-3.58,2.56-.54,3.14-1.62,2.84-4-1.83-14.57-3.58-29.15-5.37-43.73-.73-6-1.49-11.94-2.18-17.91a19.78,19.78,0,0,1,0-3.77,3,3,0,0,1,2-2.94c1.5-.49,2.33.65,3.08,1.65A20.26,20.26,0,0,1,168,221.7c4,13.47,5.79,27.34,7.51,41.22.68,5.55,1.23,11.12,1.7,16.7.15,1.74.72,2.27,2.33,1.65l1.57-.59c3-1.05,6.94-1.29,8.8-3.37s-.3-5.83-.34-8.86c-.21-19.22-4.94-37.64-9.74-56.07-.51-1.93-1.14-2.43-3.09-2.11a81.64,81.64,0,0,1-10,1c-2.32.08-4.7-.58-5-3.41-.33-3,2.29-3.15,4.27-3.53a187.43,187.43,0,0,0,53.71-19.63,96.21,96.21,0,0,0,33.21-29.05c14.08-19.79,17.25-41.87,9.35-64.33C249.66,55.48,225.32,30.16,189,17.49c-13.76-4.79-28.32-5.07-42.71-5.59-18.51-.67-37.09-.18-55,4.6C62.27,24.2,41.48,43,25.46,67.56c-9,13.82-14.66,28.82-14.91,45.63-.27,18.48,5.73,34.49,17.67,48.52,13.17,15.48,30.18,25.09,48.67,32.55a180.14,180.14,0,0,0,33.65,10.12c1.93.37,4.65.36,4.46,3.36s-2.77,3.65-5.23,3.61a37,37,0,0,1-8.75-.83c-3-.78-3.68.36-4.41,3A275.81,275.81,0,0,0,86.52,274.6c-.26,5.24-1.94,6.25-6.09,4.55-2.44-4.32-2.51-9.12-2.54-13.84-.15-18.45,4.2-36,10.68-53.15,1.26-3.32.45-4.3-2.74-5.31-21-6.62-40.59-15.73-57-30.93C.55,149.69-7.87,113.63,7.79,78.38c15-33.79,39.89-58,74.88-71.12,13.39-5,27.63-5.62,41.71-6.65a206,206,0,0,1,60.53,4.14c28.3,6.4,49.65,23.68,67.37,45.83,12.07,15.09,20.77,31.88,23.18,51.34,3.2,25.78-3.83,48.4-21.49,67.63-17.19,18.73-39,29.61-62.79,37.09-3.8,1.2-4.16,2.4-2.84,5.91a165.2,165.2,0,0,1,10.35,43.51c.68,7.43-.52,14.73-.44,22.1,0,2.7-3.08,3.77-5.19,5.07-12.28,7.6-25.72,12.14-39.85,14.72a115.44,115.44,0,0,1-67-7.14,24.69,24.69,0,0,1-5.45-3.06C78.55,286,78,283.92,80.47,281.82Z" transform="translate(0 0)" style="fill:#1c1c1c"/><path d="M166.43,130.27c.25-26.59,8.34-44.86,25.8-58.59a27.94,27.94,0,0,1,14.44-6.26c7-.7,12.77,2.46,18.07,6.48,10.43,7.9,14.16,19.44,16.46,31.56,4,21.08-.1,40.09-15.58,55.69a40.67,40.67,0,0,1-22.8,11.64c-11.46,1.86-20.37-2.22-26.68-11.77C169.49,149,166.24,137.81,166.43,130.27ZM187,113c-.19,18.37,5.43,32.1,16.13,43.19,2.46,2.54,4.38,2.57,7.21,1a38.14,38.14,0,0,0,15.43-15.58c10.92-21,7.13-41.79-3.53-61-6.84-12.31-20.15-10.43-27.14,1.51C189.09,92.35,187.32,103.92,187,113Zm11.16,47.5c-15.22-15.16-19.91-33.33-17.12-53.86a34.63,34.63,0,0,0,0-4.67c-2.81,4.49-3.82,9.38-4.43,14.3-1.64,13.3,0,26,7.94,37.26C187.71,158.09,191.84,161.13,198.11,160.54Z" transform="translate(0 0)" style="fill:#1c1c1c"/><path d="M110,124.86a57.58,57.58,0,0,1-8.37,32.52C94.26,169.7,83,174.12,69.3,169.88c-17-5.27-27.14-17.32-32.52-34C31.33,119,33.9,102.62,40.3,86.76c4.09-10.12,12-17.15,22.5-20.62,5-1.64,10-.68,14.64,1.66,15.51,7.76,24.26,21,29.62,36.91A56.34,56.34,0,0,1,110,124.86ZM57.55,77.4c-4,1.54-5.08,5.38-6.43,8.78-2.57,6.51-4,13.36-5.52,20.2-2.85,13.25-.15,25.56,6.33,37.17,1.52,2.72,3.16,5.52,6.23,7.11,1-2.23-.5-3.66-1.2-5.23-10.18-22.69-8.28-45.19,1-67.58.08-.32.3-.86.21-.91C57.77,76.65,57.61,77,57.55,77.4Zm42.94,46.47a53.44,53.44,0,0,0-3.4-19.62C92.51,91.7,85.38,81.08,73.3,74.51c-5.66-3.08-6.36-2.79-9.34,2.76-6.13,11.41-7.75,23.85-7.89,36.5a64.08,64.08,0,0,0,15.28,42.88c3.83,4.58,8.45,5.47,13.87,3a16.8,16.8,0,0,0,6.88-6C98,145.12,100.63,135.59,100.49,123.87Z" transform="translate(0 0)" style="fill:#1c1c1c"/><path d="M133.74,157.09l-3.56,14c1.23.37,1.73.2,2-.32,1.05-1.75,2.5-2.89,4.47-1.74s2.3,3.42,1.77,5.56-2.11,3.22-4.1,2.44-2.82.75-4.12,1.29c-4.39,1.84-7.79-.14-7.1-4.6,1.7-10.92,3.79-21.8,9.12-31.67,3.51-6.49,6-6.65,11-1.46,9,9.33,10.45,20.95,10.36,33.08a4,4,0,0,1-2.55,4c-1.86.76-3.26-.22-4.52-1.39-5.72-5.29-11.76-10.38-11.72-19.4Zm4.88-13.82c-2.34,5.56-.13,10.21.52,14.92.47,3.35,2,5.56,6,5C145,156.22,142.31,150.06,138.62,143.27Z" transform="translate(0 0)" style="fill:#1c1c1c"/><path d="M22.41,90.14c.54-1.7,1.05-3.89,1.89-6,9.81-24,26.9-41.44,48.79-54.61a12.61,12.61,0,0,1,2.29-1c1.51-.55,3.18-.91,4.15.7S79.2,32.22,78,33.17a54.23,54.23,0,0,1-5.17,3.54C52.4,49.5,37.17,66.93,26.67,88.57a29.73,29.73,0,0,1-1.57,3c-.42.65-.86,1.63-1.86,1.28S22.48,91.44,22.41,90.14Z" transform="translate(0 0)" style="fill:#1c1c1c"/><path d="M96.37,249.83c-.54,8.21-1.32,16.41-1.15,24.65,0,1.19-.28,2.32-1.55,2.67-1.52.41-2.42-.66-2.84-1.86a14.41,14.41,0,0,1-1.07-4.87,128.51,128.51,0,0,1,2.89-24.88c.3-1.4.55-3.64,2.41-3.38s1.15,2.49,1.28,3.91C96.46,247.31,96.37,248.58,96.37,249.83Z" transform="translate(0 0)" style="fill:#1c1c1c"/><path d="M95.8,195.51c-8.2-.83-16-2.48-22.72-7.66a17.6,17.6,0,0,1-2.22-1.91c-.72-.79-1.93-1.67-1.31-2.83.75-1.38,2-.4,3,0,8,3.64,16.63,5.59,25.07,8a9.91,9.91,0,0,1,2.34.92c.89.52,2.39.74,2.08,2.2-.26,1.22-1.56.93-2.48,1C98.27,195.38,97,195.42,95.8,195.51Z" transform="translate(0 0)" style="fill:#1c1c1c"/><path d="M98.57,16.68c1.59.16,3.74,0,4.22,2.28.45,2.06-1.4,3-2.94,3.53-3.15,1.11-6.39,2-9.62,2.86-1.22.32-2.62.32-3.28-1.11s.2-2.4,1.09-3.35C89.73,19.08,95.43,16.75,98.57,16.68Z" transform="translate(0 0)" style="fill:#1c1c1c"/></svg>