<?xml version="1.0" encoding="UTF-8"?><svg id="Edit" xmlns="http://www.w3.org/2000/svg" viewBox="0 0 50 50"><path d="m48.44,3.09c-1.46-2.38-4.46-2.48-6.93-1.97-.52-.33-1.11-.52-1.74-.29C25.18,5.73,11.36,14.04,1.77,26.25c-.7,1.83-.78,3.92-1.12,5.85-.64,5.14-.96,10.39-.22,15.54.02.08.07.45.09.52l.03.16c.04.33.46.72.72.76l1.12.18c.56-.26,1.26-1.15,1.64-1.58,3.25-3.64,7.62-6.16,11.6-8.86,7.89-9.89,18.24-17.91,29.44-23.69.85-.37,1.13-1.23,1.19-2.18.21-.14.41-.27.59-.36,3.91-2.36,3.87-5.83,1.6-9.49ZM11.85,37.03c-1.82,1.16-3.59,2.39-5.27,3.71-1.02-1.26-2.58-2.12-4.17-2.1.19-2.05.48-4.1.83-6.13.21-1.2.45-2.39.71-3.58.57.42,1.14.85,1.68,1.28,2.47,1.95,4.49,4.24,6.22,6.81Zm-9.67,7.69c-.03-1.55,0-3.1.11-4.64,1.04.41,1.97,1.11,2.75,1.93-1,.85-1.95,1.75-2.86,2.71Zm17.17-15.65c-1.67,1.63-3.21,3.39-4.7,5.2-.84-1.55-1.96-2.95-3.29-4.14,8.14-8.32,17.65-15.37,28.11-20.51.22-.1.32-.36.24-.59-.09-.24-.36-.36-.6-.27-2.88,1.11-5.72,2.35-8.42,3.86-7.75,4.27-14.83,9.76-20.69,16.41-1.47-1.05-3.11-1.87-4.83-2.38C14.37,16.4,26.82,9.17,39.86,4.89c.06.05.13.09.2.12,1.64,1.79,2.32,4.41,2.28,6.84l-.02.29c-8.51,4.45-16.19,10.14-22.98,16.92Zm26.81-19.06c-.19-1.93-.75-3.86-1.72-5.56.49.01.94.18,1.34.63.52.63,1.29,2.21,1.35,3.03-.04.74-.43,1.35-.97,1.9Z" style="fill:#1c1c1c;"/></svg>