<?xml version="1.0" encoding="UTF-8"?><svg id="Exit" xmlns="http://www.w3.org/2000/svg" viewBox="0 0 50 50"><path d="m33.74,31.21c-1.72-2.24-4.05-4.31-6.12-6.28,1.08-1.09,2.2-2.16,3.24-2.94,1.74-1.32,3.16-2.95,3.89-4.69.26-.61.31-1.1.17-1.48-.1-.29-.64-.86-.98-.93-.98-.19-1.55.09-2.63,1.03-.75.65-2.03,1.69-2.83,2.6-1.09,1.25-2.27,2.53-3.46,3.78-1.06-1.12-2.12-2.25-3.04-3.19-1.62-1.64-2.95-3.16-4.69-3.89-.61-.26-1.1-.31-1.48-.17-.29.1-.86.64-.93.98-.19.98.23,1.5,1.03,2.63.58.82,1.74,2.01,2.6,2.83,1.22,1.16,2.51,2.35,3.79,3.55-.73.71-1.46,1.38-2.17,2.02-1.83,1.63-4.34,4.51-4.78,5.38-.44.87-.66,2.35.61,2.7.64.17,1.79-.62,2.79-1.4,2.22-1.71,4.29-4.02,6.24-6.08.72.73,1.41,1.45,2.06,2.17,1.63,1.83,4.49,4.5,5.26,4.93.77.42,2.48.51,2.83-.76.17-.64-.62-1.79-1.4-2.79Z" style="fill:#1c1c1c;"/><path d="m1.48,32.09C-.49,26.23-.07,19.58,2.63,13.93,5.34,8.28,10.31,3.73,16.25,1.54c5.93-2.23,12.72-2.02,18.56.55,5.84,2.54,10.63,7.41,13.08,13.34,2.46,5.92,2.48,12.78.1,18.74-2.35,5.96-7.05,10.97-12.92,13.59-2.92,1.32-6.09,2.07-9.28,2.2l-1.2.05-1.2-.05c-.8,0-1.59-.15-2.39-.23-1.57-.27-3.14-.61-4.64-1.16-6.03-2.16-11.1-6.7-13.92-12.38-.36-.73-.06-1.61.66-1.97.72-.36,1.58-.07,1.95.63,2.6,4.96,7.14,8.82,12.4,10.58,1.31.47,2.67.75,4.03.97.69.05,1.37.18,2.07.18l1.04.03,1.04-.06c2.76-.13,5.49-.8,7.99-1.96,5.01-2.31,9.11-6.57,11.14-11.71,2.07-5.11,2.07-11.06-.03-16.18-2.03-5.15-6.13-9.46-11.2-11.76-5.06-2.33-11.03-2.57-16.33-.76-5.31,1.8-9.89,5.75-12.48,10.79-2.64,5-3.31,11.1-1.69,16.64.13.43-.12.88-.55,1-.42.12-.86-.11-1-.52Z" style="fill:#1c1c1c;"/></svg>