<?xml version="1.0" encoding="UTF-8"?><svg id="Guide" xmlns="http://www.w3.org/2000/svg" viewBox="0 0 50 50"><path d="m37.6,22.01c-.75-.78-1.98.3-1.3,1.15,7.3,8.87,1.75,22.52-9.72,23.44-6.82.63-13.44-4.45-14.63-11.15-1.36-6.67,2.89-13.79,9.42-15.73,3.2-1.04,6.8-.83,9.91.54,1.85.78,3.12-1.89,1.34-2.83-4.54-2.27-9.31-2.25-13.44-.68-.48-5.6-.37-13.85,6.69-13.1,5.74.41,6.65,7.15,6.51,12.02-.04.42.24.83.67.92.47.11.93-.18,1.04-.65.73-3.58.82-7.21-.72-10.67C31.83,1.47,27.27-.5,23.31.11c-8.35,1.26-8.68,11.44-7.24,18.19-5.64,3.57-9.26,10.33-7.76,17.84,2.67,13.78,20.16,18.71,29.49,8.22,5.68-6.12,5.65-16.44-.21-22.35Z" style="fill:#1c1c1c;"/><path d="m20.37,23.52c.78-.51.11-1.75-.75-1.38-3.81,1.62-6.41,5.92-6.03,10.02.03.49.78.53.86.05.4-1.84,1.08-3.53,2.1-4.99,1.01-1.48,2.32-2.7,3.82-3.7Z" style="fill:#1c1c1c;"/><path d="m13.57,35.77c-.05,1.08.5,2.09,1.42,2.68,1.43.52.55-2.57.11-3.06-.39-.64-1.48-.39-1.52.38Z" style="fill:#1c1c1c;"/><path d="m28.82,30.41c-1.21-1.6-3.73-2-5.23-.73-.04.03-.06.08-.09.11-.52-.17-1.12-.09-1.56.4-2.16,2.25-.88,5.93,1.77,6.97-.31,1.18-.32,2.56.07,3.16.57,1.28,2.56,1.3,3.14,0,.42-1.03.4-2.15.07-3.19,2.51-1.04,3.76-4.45,1.85-6.72Zm-2.89,3.12c-.9.57-1.9-.38-1.53-1.41,0,0,.12-.36.12-.36.07-.2.1-.4.08-.58,1.5-.17,2.46,1.55,1.32,2.36Z" style="fill:#1c1c1c;"/></svg>