<?xml version="1.0" encoding="UTF-8"?><svg id="Trash" xmlns="http://www.w3.org/2000/svg" viewBox="0 0 50 50"><path d="m40.12,12.94c-.26-.15-.57-.22-.94-.19-6.74.54-13.52,1.29-20.29,1.51-2.26.05-4.51.07-6.79,0-1.01-.05-1.25,1.44-.28,1.72,8.36,2.27,17.23,1.95,25.7.34-1.52,9.57-3.21,19.81-5.19,29.2-5.11,1.04-10.55,1.09-15.68.12-2.25-9.81-4.2-20.56-5.95-30.45-.21-1.09-1.81-.86-1.73.23.23,2.69.52,5.37.82,8.05.95,8.06,2.14,16.06,3.79,24.02.13.61.6,1.12,1.24,1.27,1.66.42,3.22.69,4.85.9,4.91.67,9.84.36,14.69-.74.66-.15,1.21-.68,1.36-1.39.63-2.76,1.17-5.47,1.7-8.22,1.51-8.22,2.74-16.48,3.59-24.79.06-.8-.36-1.33-.91-1.58Z" style="fill:#1c1c1c;"/><path d="m11.79,12.26c6.52-1.8,13.04-3.82,19.64-5.3,2.21-.47,4.42-.92,6.67-1.28,1-.15.96-1.65-.05-1.74-3.45-.26-6.91-.1-10.33.39.09-1.07-.42-2.58-.95-3.1-1.56-1.83-4.57-1.45-6.16.15-1.26,1.28-1.54,3.09-1.09,4.73-3.02.87-5.98,1.96-8.85,3.18-1.76.83-.75,3.5,1.12,2.97Zm11.54-8.24c.2-.26,1.03-.67,1.32-.6.31.09.74.64,1.1,1.22-.94.17-1.88.37-2.82.59.04-.45.13-.89.4-1.2Z" style="fill:#1c1c1c;"/><path d="m18.91,43.32c-.34-3.97-.91-7.9-1.46-11.85-.62-3.93-1.23-7.86-2.06-11.76-.21-.97-1.68-.72-1.56.26,1,7.89,2.42,15.74,4.22,23.49.13.52.91.38.86-.15Z" style="fill:#1c1c1c;"/></svg>