<svg id="Layer_3" data-name="Layer 3" xmlns="http://www.w3.org/2000/svg" viewBox="0 0 50 38.66"><path d="M49.49,18.77h0c-.43-.21-.89-.47-1.33-.73s-.88-.53-1.29-.82A14.63,14.63,0,0,1,45.31,16,1.61,1.61,0,0,0,46,14.67a12.19,12.19,0,0,0-2.4-6.94A15.93,15.93,0,0,0,38.1,3.14,25.74,25.74,0,0,0,31.6.84,39.7,39.7,0,0,0,24.9,0,25.17,25.17,0,0,0,11.61,3.08,22.19,22.19,0,0,0,6.23,7.44a21.61,21.61,0,0,0-2.1,2.74,17.13,17.13,0,0,0-.88,1.49,15,15,0,0,0-.77,1.65,1.44,1.44,0,0,0,2.65,1.12l0-.09a16.25,16.25,0,0,1,1.46-2.49A19,19,0,0,1,8.52,9.55a19.82,19.82,0,0,1,4.7-3.61A21.87,21.87,0,0,1,24.79,3.45,28.49,28.49,0,0,1,36.52,6.13a12.76,12.76,0,0,1,4.36,3.58,10,10,0,0,1,1.47,2.84h0c-.84-.17-1.68-.29-2.52-.4a45.41,45.41,0,0,0-5.08-.3,41.6,41.6,0,0,0-10,1.26c-1.64.41-3.25.93-4.76,1.4s-3.08.88-4.64,1.25a37.7,37.7,0,0,1-4.69.81,22.85,22.85,0,0,1-2.33.11,10.55,10.55,0,0,1-1.13-.06c-.18,0-.37,0-.54-.08a3.81,3.81,0,0,1-.42-.1l-.26,0a.77.77,0,0,0-.45,1.46,5,5,0,0,0,.74.27l.67.15c.43.08.87.14,1.3.18a24.19,24.19,0,0,0,2.55,0,41.33,41.33,0,0,0,5-.55c1.64-.27,3.26-.65,4.87-1.06s3.14-.85,4.68-1.17a44.42,44.42,0,0,1,9.4-.88,42.8,42.8,0,0,1,4.68.39c.78.12,1.54.25,2.3.42.45.1.92.21,1.36.34a.89.89,0,0,0,.2.48,12.44,12.44,0,0,0,2.59,2.26c.46.32.93.61,1.4.89l.3.17a2.31,2.31,0,0,1-1.27.56,7.64,7.64,0,0,1-1.44-.18,4.28,4.28,0,0,0-2.14.24,8.64,8.64,0,0,0-1.65.93,10.54,10.54,0,0,1-1.32.7,2.89,2.89,0,0,1-2.25.27,5.57,5.57,0,0,1-1.88-1.73A29.29,29.29,0,0,0,33.25,18,4.48,4.48,0,0,0,31,16.74a3.67,3.67,0,0,0-1.59.12,5.5,5.5,0,0,0-1.14.57c-1.2.83-1.85,1.6-2.62,2.16a4.49,4.49,0,0,1-2.23,1,5.81,5.81,0,0,1-2.55-.36,21.94,21.94,0,0,0-3.46-.89,12.85,12.85,0,0,0-3.72-.08,15.16,15.16,0,0,0-3.48.93,22.63,22.63,0,0,1-3,.94,10.3,10.3,0,0,1-2.93.17A8.18,8.18,0,0,1,2.91,21l.25-.22c.49-.48,1-1,1.38-1.5A.79.79,0,0,0,3.39,18.2c-.46.43-.94.85-1.43,1.24L1.22,20a6,6,0,0,1-.73.48,1,1,0,0,0-.33.31,1,1,0,0,0,.27,1.33l0,0A8.19,8.19,0,0,0,2.18,23a10.12,10.12,0,0,0,1.79.5H4a3.4,3.4,0,0,0-.07.34,4.72,4.72,0,0,0,.13,1.86A4.21,4.21,0,0,0,5,27.4l.13.14a10.23,10.23,0,0,0-.33,3A8.05,8.05,0,0,0,5.66,34a6.65,6.65,0,0,0,2.59,2.67,9.68,9.68,0,0,0,3.4,1.2,15.78,15.78,0,0,0,3.41.1l3.12-.21a41.7,41.7,0,0,1,6,0c2,.11,3.94.48,6.14.71a31.51,31.51,0,0,0,6.59,0,10.45,10.45,0,0,0,3.58-1,7.71,7.71,0,0,0,2.88-2.66,8.85,8.85,0,0,0,1-7.07A5.77,5.77,0,0,0,45.76,25a5.26,5.26,0,0,0,0-2.12,2.55,2.55,0,0,0-.18-.53,4.86,4.86,0,0,0,.93,0,4.18,4.18,0,0,0,2-.85,8.63,8.63,0,0,0,1.34-1.28h0A.6.6,0,0,0,49.9,20,.92.92,0,0,0,49.49,18.77ZM7.65,23.55A23,23,0,0,0,11,22.7a13,13,0,0,1,3-.62,11.25,11.25,0,0,1,2.88.2,21.26,21.26,0,0,1,2.93.87,8.59,8.59,0,0,0,4,.62,7.72,7.72,0,0,0,3.83-1.52c1-.73,1.89-1.61,2.52-2a2,2,0,0,1,.33-.18s0,0,0,0a1.41,1.41,0,0,1,.6.38,24.1,24.1,0,0,1,2.24,2.2,15.43,15.43,0,0,0,1.36,1.26,5.86,5.86,0,0,0,1.94,1,4.65,4.65,0,0,0,2.28.05,7.41,7.41,0,0,0,1.87-.71,13,13,0,0,0,1.53-1l.25-.19.1.16a.74.74,0,0,1,.11.35,2.09,2.09,0,0,1-.06.84,2.52,2.52,0,0,1-.87,1.38l-.13,0-.62.07q-.68.06-1.41.09c-1,0-1.94.05-2.93.06-4,0-7.94.08-11.94.21s-8,.41-11.89.53c-1,0-1.95,0-2.9,0a11.56,11.56,0,0,1-2.64-.35,2.64,2.64,0,0,1-.44-.16,2.75,2.75,0,0,1-.42-.32,2.27,2.27,0,0,1-.61-.83,2.94,2.94,0,0,1-.17-1.41A13.52,13.52,0,0,0,7.65,23.55Zm33,9.51A4.58,4.58,0,0,1,39,34.56a7.21,7.21,0,0,1-2.44.55A33.24,33.24,0,0,1,30.67,35c-1.94-.17-4.12-.53-6.28-.61a43.6,43.6,0,0,0-6.47.2A35.67,35.67,0,0,1,12,35.1a7,7,0,0,1-2.51-.67,4.32,4.32,0,0,1-1.85-1.61,7.07,7.07,0,0,1-1-4.24,13.66,13.66,0,0,0,3.14.68c1,.13,2.06.19,3.07.25,4.06.18,8,0,12,0s7.93,0,12-.12c1,0,2-.08,3-.14.51,0,1-.07,1.57-.13l.27,0A5.84,5.84,0,0,1,40.68,33.06Z" transform="translate(0)" style="fill:#1c1c1c"/><path d="M8.83,13.37h0c.69-.62,1.42-1.23,2.13-1.82s1.44-1.16,2.18-1.7,1.51-1,2.29-1.46a18.09,18.09,0,0,1,2.41-1.11h0a.73.73,0,0,0,.46-.81.72.72,0,0,0-.84-.58,10.51,10.51,0,0,0-2.87,1,16.29,16.29,0,0,0-2.49,1.65,18.55,18.55,0,0,0-3.91,4.34.39.39,0,0,0,0,.48A.39.39,0,0,0,8.83,13.37Z" transform="translate(0)" style="fill:#1c1c1c"/></svg>