<?xml version="1.0" encoding="UTF-8"?><svg id="a" xmlns="http://www.w3.org/2000/svg" viewBox="0 0 695.92 1457.71"><defs><style>.b{fill:#fafafa;}</style></defs><path class="b" d="m154.3,1239.57c-11.43-4.6-22.38-10.16-32.97-16.44-1.3-.77-1.72-1.71-1.91-3.07-1.47-10.52-1-21.08-.71-31.63.88-31.01,4.02-61.8,9.71-92.3,1.59-8.54,3.35-17.05,4.91-25.6.35-1.89,1.32-1.82,2.74-1.56,9.55,1.8,18.92,4.31,28.2,7.14,1.46.45,2.21.43,2.9-1.24,6.85-16.48,23.42-26.18,41.19-24.2,9.71,1.08,18.6,4.25,26.27,10.45,2.24,1.82,4.23,3.9,5.79,6.35,6.4,10.03,12.25,20.32,15.07,32.04,1.81,7.52,1.32,14.98-.73,22.37-.36,1.29-.16,2.05.94,2.67.18.11.32.3.51.4,8.57,4.84,11.88,13.09,14.59,21.91,1.03,3.34.54,5.6-1.53,8.33-9.6,12.65-20.22,24.48-29.53,37.36-8.65,11.97-16.1,24.65-22.63,37.89-1.59,3.22-3.27,6.4-4.83,9.63-.4.83-.98,1.15-1.79,1.34-7.85,1.88-15.51,4.33-22.89,7.6-1.22.54-2.35.37-3.56.11-10.23-2.21-19.95-5.99-29.74-9.57Zm5.99-3.27c7.48,2.89,15.54,5.73,23.82,7.94,1.6.43,2.25.1,2.86-1.42,6.51-16.31,15.37-31.34,25.27-45.77,14.47-21.06,31.5-40.11,47.47-59.99,1.09-1.36.99-1.97-.3-3.01-7.24-5.91-14.58-11.67-22.33-16.9-1.36-.91-1.53-1.68-.94-3.14,2.46-6.08,4.44-12.31,4.84-18.93.51-8.28-.52-16.26-5.03-23.43-5.02-7.96-12.76-12.03-21.53-14.37-9.56-2.56-18.91-2.41-27.76,2.74-8.28,4.82-13.68,11.93-16.74,20.9-.52,1.51-1.08,1.73-2.62,1.22-9.49-3.12-19.03-6.09-28.81-8.25-1.37-.3-1.72,0-1.87,1.34-.39,3.35-.86,6.7-1.47,10.02-7.91,43.23-11.34,86.89-12.45,130.77-.04,1.44.41,2.2,1.6,2.9,11.36,6.69,23.08,12.64,35.99,17.36Zm102.84-97.62c-.49.6-.83.95-1.11,1.36-5.43,8.04-11.34,15.73-17.41,23.29-17.59,21.93-34.56,44.28-47.23,69.55-1.52,3.04-2.99,6.11-4.71,9.63,1.21-.4,1.88-.6,2.52-.84,3.97-1.51,7.99-2.87,12.13-3.78,1.66-.37,2.54-1.08,3.15-2.7,5.58-14.72,13.15-28.39,22.16-41.28,10.1-14.46,21.69-27.69,33.37-40.85.55-.61,1.42-1.08,1.11-2.16-1.16-4.05-2.36-8.1-3.99-12.22Zm-15.73-47.87c-.07,3.95-.41,7.8-1.18,11.6-.78,3.81-1.84,7.53-3.44,11.09-.37.82-.14,1.33.55,1.82,1.87,1.33,3.74,2.66,5.58,4.04.92.69,1.31.49,1.59-.59,2.58-9.72,1.6-19.05-3.1-27.95Z"/><path class="b" d="m128.17,1217.48c-.74-.62-.63-1.54-.73-2.33-1.28-9.75-.53-19.5.2-29.24,2.03-27.31,6.81-54.26,10.84-81.31.83-5.54,1.54-11.09,2.33-16.64.25-1.79.81-3.5,1.71-5.08.21-.37.44-.85.93-.77.69.11.55.73.52,1.21-.14,2.22-.32,4.44-.45,6.66-1.13,18.6-4.55,36.9-7.13,55.3-2.85,20.27-5.3,40.57-6.55,61.01-.19,3.15-.58,6.29-.93,9.43-.06.58.09,1.32-.73,1.76Z"/><path class="b" d="m202.9,1194.11c.44-2.24,1.43-4.19,2.6-6.05,7.82-12.39,17.71-23.12,27.27-34.12,3.01-3.47,6.17-6.81,9.35-10.12,1.18-1.23,2.61-2.24,3.95-3.32.62-.5,1.46-1.07,2.11-.38.83.88-.13,1.57-.68,2.16-7.44,7.99-14.38,16.41-21.49,24.68-6.41,7.45-12.64,15.07-18.6,22.89-1.25,1.64-2.56,3.25-4.51,4.26Z"/><path class="b" d="m203.8,1158.08c-6.56-4.05-13.98-7.32-21.65-10.05-6.7-2.39-13.53-4.37-20.38-6.28-2.22-.62-4.38-1.39-6.47-2.37-.53-.25-1.1-.56-.98-1.24.13-.78.82-.93,1.49-.96.42-.02.86.06,1.28.15,11.77,2.41,23.35,5.5,34.46,10.16,4.44,1.86,8.76,3.99,12.83,6.58.6.38,1.21.79,1.73,1.27.75.7,1.46,1.55.79,2.63-.71,1.14-1.73.69-3.09.11Z"/><path class="b" d="m174.61,1079.63c4.41-10.5,18.15-20.02,28.88-20.05,1.75,0,3.43.31,5.08.8.55.16,1.21.39,1.13,1.09-.09.71-.8.72-1.37.78-1.78.2-3.58.32-5.35.6-11.93,1.87-20.39,8.59-26.33,18.86-.44.76-.46,2.62-2.01,1.85-1.26-.62-.59-2.03-.35-3.13.06-.28.21-.53.32-.8Z"/><path class="b" d="m216.43,1137.84c1.41-.59,2.44-1.48,3.77-1.6.5-.05,1.05-.13,1.36.39.31.51.04,1.05-.3,1.38-.97.95-1.96,1.9-3.06,2.69-1.16.84-1.68,1.74-1.42,3.26.31,1.75.45,3.56.21,5.36-.16,1.24-.69,2.33-2.07,2.34-1.37.01-1.67-1.2-1.82-2.29-.19-1.34-.25-2.69-.39-4.25-.96.65-1.7,1.21-2.49,1.68-.84.5-1.78.87-2.51-.1-.76-.99-.31-1.89.47-2.67.1-.1.2-.21.32-.29,2.62-1.59,4.55-3.52,4.26-6.96-.08-.93.46-2.16,1.66-2.19,1.37-.04,1.58,1.21,1.78,2.29.05.27.12.54.22.96Z"/><path class="b" d="m196.33,1126.08c-.76,1.05-1.71,2.07-2.87,2.77-1.45.88-1.65,1.9-1.01,3.39.42.97.58,2.07.75,3.13.12.74-.05,1.48-.85,1.8-.79.32-1.44-.07-1.87-.69-.48-.7-.98-1.46-1.2-2.26-.48-1.77-1.2-1.61-2.26-.49-.34.36-.76.66-1.19.91-.75.43-1.54.47-2.2-.14-.74-.68-.74-1.54-.29-2.37.52-.96,1.3-1.78,2.23-2.3,1.79-1,2.19-2.39,1.65-4.27-.22-.75-.21-1.56-.29-2.35-.06-.64-.25-1.34.55-1.68.78-.33,1.45.03,1.93.58.41.47.81,1.09.88,1.68.27,2.46,1.36,2.34,3,1.13.5-.37,1.16-.56,1.77-.76.48-.16,1.02-.19,1.4.24.48.54.15,1.08-.11,1.68Z"/><path class="b" d="m163.83,1114.87c1.59-1.03,2.78-2.22,4.35-2.81.6-.23,1.31-.59,1.8,0,.53.64-.07,1.21-.48,1.67-1.09,1.23-2.16,2.5-3.36,3.61-.9.83-1.04,1.55-.44,2.6.5.86.87,1.81,1.21,2.75.23.62.24,1.31-.4,1.74-.69.47-1.36.3-1.96-.22-.21-.19-.4-.42-.63-.58-.8-.54-.63-2.26-1.81-1.99-.83.19-1.44,1.31-2.15,2.02-.15.15-.29.31-.45.46-.86.77-1.84,1.77-2.97.79-1.21-1.05-.41-2.22.38-3.21.36-.45.74-.89,1.18-1.24,2.13-1.66,3.4-3.56,2.2-6.39-.2-.47-.03-1.13.07-1.69.11-.64.3-1.33,1.08-1.42.81-.1,1.1.59,1.36,1.16.38.84.66,1.72,1.04,2.75Z"/><path class="b" d="m166.99,1233.34c-2.18.67-4.16-.01-6-.58-9.86-3.02-19.07-7.51-27.87-12.85-.55-.34-1.62-.58-1.18-1.42.39-.73,1.33-.23,1.96.02,6.37,2.44,12.47,5.52,18.67,8.34,4.12,1.87,8.27,3.66,12.54,5.16.64.23,1.44.28,1.86,1.34Z"/><path class="b" d="m248.95,1136.73c-.47-.32-1.26-.72-1.86-1.32-4.27-4.25-8.76-8.3-12.77-12.82-.38-.43-.76-.87-1.07-1.35-.46-.7-1.27-1.56-.49-2.29.81-.76,1.59.2,2.2.7,5.05,4.05,9.85,8.37,14.25,13.13.63.68,1.17,1.45,1.71,2.21.39.54.72,1.16.26,1.79-.58.78-1.29.29-2.23-.05Z"/><path class="b" d="m186.23,1223.24c2.52-5.97,5.71-11.57,9.31-16.94.28-.42.54-.85.85-1.24.3-.37.59-.96,1.19-.65.62.32.28.91.09,1.32-1.13,2.48-2.18,5-3.48,7.39-3.37,6.17-6.48,12.46-8.97,19.05-.26.7-.43,1.76-1.48,1.47-1.15-.31-.78-1.36-.63-2.18.55-2.92,1.9-5.55,3.12-8.22Z"/><path class="b" d="m148.1,1083.22c-.88-.29-1.95-.57-1.67-1.8.27-1.2,1.32-1.16,2.27-1,5.19.88,10.07,2.69,14.8,4.96.71.34,1.53.79,1.16,1.77-.35.93-1.28.77-2.05.72-1.67-.11-3.18-.81-4.73-1.34-3.25-1.1-6.51-2.2-9.76-3.29Z"/><path class="b" d="m231.09,1076.53c1.75.72,2.19,1.62,2.48,2.55,2.43,7.77,1.32,15.29-1.78,22.63-.16.39-.4.78-1.41.71,2.21-8.4,3.35-16.84.71-25.89Z"/><path class="b" d="m199.01,1197.96c.26.74.99.98,1.53,1.41.58.46.87.97.45,1.64-.46.73-1.19.81-1.87.46-1.12-.58-1.78-1.61-2.22-2.76-.12-.31-.16-.73.18-.97.75-.53,1.32.18,1.98.31l-.04-.09Z"/><path class="b" d="m199.06,1198.05c.04-.77-.52-1.86.74-2.08,1.17-.21,2.23.25,2.97,1.23.27.36.25.8-.05,1.17-.34.42-.84.6-1.33.46-.81-.23-1.59-.58-2.38-.88,0,0,.05.09.05.09Z"/><path class="b" d="m228.61,649.08c7.83-5.27,16.27-9.42,24.69-13.63,5.59-2.8,11.36-5.2,17.2-7.71-.2-.32-.3-.59-.5-.77-10.66-9.77-21.38-19.47-34-26.75-.97-.56-1.6-1.05-2.72.06-1.14,1.13-2.44.26-2.8-1.07-.66-2.43,0-4.7,1.53-6.68.52-.68,1.31-.91,2.13-.49.83.43,1.1,1.25.78,2.02-.74,1.75.24,2.36,1.59,3.07,14.28,7.55,26.94,17.31,38.66,28.36.78.73,1.11,1.61,1.39,2.6,4.7,16.97,8.44,34.16,12,51.4.3,1.43-.05,2.38-1.09,3.4-9.9,9.66-20.71,18.25-31.63,26.7-32.73,25.34-67.02,48.39-102.79,69.22-1.61.94-3.24,2.58-4.86,2.58-1.69,0-2.22-2.5-3.22-3.92-20.01-28.36-36.01-58.99-50.83-90.26-9.51-20.07-18.28-40.47-26.25-61.21-.08-.2-.12-.42-.22-.61-1.22-2.4-.82-4.26,1.22-6.23,8.96-8.63,17.76-17.42,26.62-26.16,1.33-1.31,2.8-2.51,3.97-3.95,2.12-2.59,4.88-3.78,8.04-4.58,17.19-4.35,34.69-6.82,52.29-8.6,3.71-.37,7.36,1.09,10.98,1.96,15.58,3.72,31.2,7.26,46.62,11.6,1.79.5,3.54,1.21,5.22,1.99,1.01.47,1.53.58,1.75-.72.13-.78.56-1.48,1.22-1.98,1.22-.92,2.55-.47,2.68,1.02.16,1.85.1,3.73.07,5.6-.01.88-.54,1.48-1.39,1.72-.85.25-1.77.01-2.11-.69-.8-1.69-2.27-1.63-3.74-1.91-12.86-2.42-25.54-5.59-38.15-9.06-4.57-1.26-9.22-2.23-13.74-3.64-5.53-1.72-10.97-.62-16.45,0-14.15,1.6-28.19,3.88-42.17,6.59-.61.12-1.21.31-2.16.55,9.24,10.74,16.9,22.34,25.37,33.31-.93.78-1.38.26-1.85,0-4.15-2.18-6.85-5.87-9.58-9.47-5.31-6.98-10.53-14.03-15.71-21.1-.93-1.27-1.47-1.57-2.73-.35-10.25,9.99-20.54,19.93-30.87,29.84-1.04.99-.75,1.79-.33,2.85,9.28,23.39,19.18,46.5,30.15,69.16,10.4,21.5,21.56,42.58,33.88,63.04.44.73.91,1.44,1.72,2.01-.82-2.4-1.59-4.82-2.47-7.2-4.93-13.35-10.65-26.4-15.06-39.93-3.56-10.93-6.32-22.1-8.8-33.33-.05-.21-.09-.42-.11-.64-.04-.69-.47-1.63.37-1.93.89-.32,1.11.69,1.43,1.28,2.26,4.03,3.95,8.32,5.23,12.73,5.8,19.97,13.34,39.32,20.88,58.67,3.21,8.23,5.26,16.87,8.91,24.95.68,1.5,1.08,1.92,2.67.97,38.44-22.82,75.44-47.75,110.55-75.45,5.24-4.13,10.34-8.43,15.31-13.04-3.42,1.18-6.87,2.29-10.27,3.54-11.19,4.12-22.51,7.88-33.58,12.34-3.06,1.23-5.33,3.33-7.65,5.45-17.08,15.63-34.2,31.21-50.82,47.34-5.1,4.95-11.13,8.87-16.07,14.04-.9.94-1.99,1.82-3.59,1.8,6.81-8.26,14.57-15.61,21.84-23.42,7.35-7.9,15.27-15.24,23.09-22.67,7.8-7.41,15.51-14.94,24.25-22.01-4.15-.6-7.88-1.13-11.61-1.68-18-2.68-35.89-5.93-53.3-11.31-14.76-4.56-29.32-9.69-43.33-16.26-1-.47-1.89-1.22-2.98.1-.57.69-1.65.45-2.28-.33-.81-1.01-.77-2.15-.18-3.24.57-1.05,1.47-1.18,2.58-.87,6.46,1.75,12.65,4.24,18.88,6.63,17.18,6.6,34.53,12.59,52.58,16.43,13.58,2.88,27.28,5.05,40.91,7.63.84.16,1.51.02,2.27-.33,17.21-7.87,34.97-14.31,52.86-20.41,1.51-.51,1.81-1.14,1.52-2.62-2.76-13.81-5.56-27.61-8.86-41.31-.37-1.54-.69-2.03-2.35-1.32-13.3,5.64-26.5,11.48-39.14,18.51-1.21.68-1.68,1.33-1.65,2.8.21,13.09-.17,26.17-1.02,39.23-.1,1.49-.2,3-1.4,4.41-1.02-.97-1.13-2.15-1.26-3.32-.86-7.53-.52-15.08-.27-22.63.2-6.03.88-12.05.51-18.1-.11-1.81.27-3.41,1.63-4.69l-.07.07Z"/><path class="b" d="m228.68,649.01c-8.42.05-16.51-2.05-24.61-3.9-19.8-4.53-39.34-10.04-58.89-15.51-2.07-.58-4.16-1.16-6-2.34-.58-.38-1.39-.81-1.04-1.65.3-.72,1.14-.48,1.74-.4,5.41.76,10.7,2.12,16.02,3.31,21.64,4.86,42.84,11.4,64.37,16.65,2.3.56,4.53,1.37,6.8,2.04.94.28,1.81.6,1.53,1.86,0,0,.07-.07.07-.07Z"/><path class="b" d="m136.28,627.03c-.35,2.34-1.49,4.58-2.86,6.69-3.45,5.3-6.6,10.77-9.62,16.33-2.4,4.42-4.89,8.78-7.44,13.11-.64,1.09-1.4,3.03-2.77,2.37-1.02-.49-.07-2.42.38-3.54.93-2.32,2.08-4.57,3.25-6.79,5-9.46,10.09-18.87,16.34-27.6.33-.47.66-.94,1.03-1.38.31-.38.62-.91,1.2-.7.58.21.5.8.5,1.52Z"/><path class="b" d="m158.19,626.86c-5.8-.36-10.96-2.49-16.33-3.73-5.2-1.21-8.73-4.27-11.52-8.59-1.63-2.53-3.89-4.61-5.28-7.32-.34-.67-1.04-1.54-.24-2.11.67-.47,1.25.46,1.76.91,3.41,2.99,6.26,6.51,9.33,9.83.85.92,1.68,1.74,2.88,2.14,6.39,2.13,12.78,4.26,19.16,6.39.2.07.44.07.62.18.74.45,2.33.29,2.15,1.25-.21,1.15-1.7,1-2.54,1.05Z"/><path class="b" d="m101.4,599c1.1-.01,1.4.58,1.06,1.53-.37,1.03-.99,1.91-1.77,2.67-5.86,5.7-11.49,11.63-17.11,17.56-.84.88-1.72,1.75-2.87,2.23-.6.25-1.27.38-1.8-.18-.6-.64-.17-1.21.22-1.72,5.75-7.56,12.18-14.48,19.4-20.65.82-.7,1.77-1.22,2.86-1.43Z"/><path class="b" d="m232.9,679.27c-.68-.55-.44-1.32-.43-1.99.09-6.17.25-12.34.32-18.51.02-2.11.81-3.77,2.48-4.99,3.71-2.71,7.36-5.51,11.4-7.72.85-.47,1.7-1.12,3.15-.7-3.03,2.89-5.77,5.83-8.86,8.34-3.07,2.5-4.52,5.45-4.64,9.41-.15,4.88-1.23,9.67-2.42,14.41-.16.65-.1,1.47-1,1.76Z"/><path class="b" d="m77.13,628.57c8.43,11.52,17.83,22.2,27.5,32.67.5.54.88,1.27.89,2.15-6.41-2.33-27.21-27.54-28.38-34.82Z"/><path class="b" d="m213.88,702.94c1.21-.11,2.37,0,2.94,1.26.58,1.28-.18,2.12-1.07,2.97-3.34,3.16-6.89,6.06-10.49,8.9-.55.44-1.29,1.35-2.01.66-.67-.64.04-1.46.46-2.11,1.7-2.6,3.76-4.88,6.11-6.91.43-.38,1.33-.58.57-1.64-1.25-1.75-.81-2.55,1.36-2.94.7-.13,1.43-.13,2.14-.2Z"/><path class="b" d="m106.3,670.24c.05-1.32.08-2.47.63-3.51.31-.58.66-1.17,1.43-1.06.67.1.9.71.95,1.27.18,1.98.34,3.96.43,5.95.03.61-.39,1.08-1.01,1.24-.78.2-1.4-.12-1.84-.76-.71-1.01-.54-2.18-.59-3.12Z"/><path class="b" d="m330.09,604.05c-.88-1.6-2.24-2.22-3.56-2.88-1.15-.58-2.29-1.2-3.42-1.83-.55-.31-1.31-.66-.93-1.44.32-.67,1.11-.65,1.74-.46,4.02,1.21,7.94,2.57,10.57,6.19,1.73,2.39,3.6,4.67,5.32,7.06.72,1,1.38,1.11,2.53.68,5.85-2.18,11.08-5.45,16.21-8.92,1.01-.69.74-1.32.43-2.18-1.52-4.31-4.07-8.12-6.4-11.96-3.23-5.33-2.95-10.68-1.89-16.4,3.38-18.24,9.59-35.47,18.18-51.87,2.5-4.78,5.27-9.41,8.53-13.71.95-1.25,2.08-3.3,3.92-.76.3.42.66.08.94-.03,7.1-2.63,14.19-5.23,19.26-11.35.87-1.05,1.15-1.9.84-3.26-1.1-4.85-2.32-9.63-4.84-14-.63-1.1-1.2-1.5-2.52-1.24-3.28.64-6.3,1.96-9.41,3.07-1.22.44-1,.91-.27,1.61,1.41,1.35,2.98,2.46,4.7,3.4.9.49,2.27,1.02,1.83,2.29-.44,1.26-1.88,1.13-3.02,1.02-3.02-.3-5.38-1.84-7.4-4.03-2.17-2.35-3.66-5.15-5.2-7.91-1.79-3.2-3.62-6.38-5.26-9.66-.8-1.6-1.8-1.93-3.44-1.56-3.58.82-7.05,1.98-10.54,3.09-.9.28-1.18.83-1.31,1.7-.71,4.54-1.39,9.1-2.29,13.6-.41,2.05.04,3.71,1.31,5.2,1.26,1.47,2.64,2.84,3.96,4.26,3.38,3.64,5.67,7.76,5.62,12.9-.01,1.39-.25,2.72-1.18,3.83-.33.39-.77.73-1.3.55-.5-.17-.38-.7-.45-1.12-.38-2.15-.5-4.37-1.62-6.4-.78,3.41-1.36,6.83-2.24,10.18-3.01,11.47-6.04,22.95-10.24,34.04-4.65,12.29-12.81,22.19-22.46,30.94-.26.24-.57.44-.87.63-.18.11-.4.14-1.13.37.87-1.1,1.47-1.86,2.42-3.06-3.67,1.04-6.86,1.76-9.89,3.06-.98.42-1.54,1.29-2.05,2.15-2.85,4.86-5.01,10.02-6.52,15.44-.54,1.94-.67,3.96-.35,5.99.16.98.3,2.16-1.03,2.48-1.19.29-1.82-.64-2.32-1.54-.77-1.39-.84-2.93-.6-4.42,1.26-7.87,4.38-14.99,9.02-21.44,1.35-1.88,3.6-2.27,5.67-2.85,1.24-.35,2.53-.65,3.81-.7,4.82-.19,7.91-3.06,10.46-6.69,1.44-2.05,2.78-4.19,3.95-6.41,5.04-9.54,9.51-19.3,12.51-29.72,2.45-8.49,5.19-16.89,7.55-25.41.34-1.24.51-2.54.78-3.8.71-3.29.23-5.99-2.47-8.52-3.78-3.54-5.18-8.09-3.91-13.36.89-3.7,1.47-7.47,2.1-11.23.29-1.72,1.16-2.81,2.75-3.55,3.53-1.65,7.21-2.82,10.95-3.89,3.66-1.05,6.33-.07,8.52,3.11,2.74,3.97,5.22,8.1,7.61,12.28.85,1.49,1.33,1.99,3.06.67,3.53-2.69,7.5-4.49,12.18-4.07,1.5.13,2.61.7,3.46,1.86,3.7,5,5.49,10.68,5.95,16.83.19,2.55-1.27,4.37-2.63,6.19-2.66,3.58-6,6.43-10.08,8.24-4.45,1.98-8.87,4.13-13.76,4.88-.89.14-1.14.8-1.48,1.41-7.85,13.96-14.13,28.58-18.67,43.94-2.08,7.03-4.02,14.09-5.47,21.29-.26,1.28-.09,2.36.51,3.5,2.23,4.27,4.38,8.58,6.58,12.86,1.78,3.49,2.41,7.18,2.11,11.07-.08,1.07-.62,1.69-1.43,2.25-5.8,4.03-11.8,7.68-18.5,10.08-3.23,1.16-5.29.63-7.31-2.18-.71-.99-1.34-2.04-1.98-3.09-1.45-2.39-3.42-3.38-5.91-1.98-3.6,2.02-7.02,1.53-10.58.37-2.73-.89-5.4-1.97-7.94-3.3-.91-.48-1.83-1.2-1.57-2.33.3-1.3,1.54-1.06,2.52-1.02,2.11.1,4.07.83,6.06,1.47,3.3,1.07,6.59,2.14,9.92,0,.9-.58,2.06-.38,3.29-.54Z"/><path class="b" d="m310.59,590.49c.53-2.76,1.57-5.71,3.31-8.39.45-.68.96-1.42,1.88-1.02.89.39.54,1.27.31,1.9-1.47,3.97-2.59,8.04-3.34,12.21-.1.57-.35,1.15-1.08,1.11-.68-.04-.93-.6-1.09-1.17-.41-1.41-.27-2.84.01-4.64Z"/><path class="b" d="m358.89,470.09c.8,1.39.27,2.83.12,4.2-.32,2.92-.66,5.85-1.63,8.65-.14.4-.31.91-.83.77-.26-.07-.48-.5-.6-.81-.85-2.14,1.23-11.23,2.94-12.81Z"/><path class="b" d="m341.43,606.71c-.03.46-.22.84-.7.96-.47.12-.86-.14-1.1-.5-1.19-1.77-2.36-3.56-3.51-5.35-.19-.3-.35-.68-.05-.98.17-.17.51-.27.75-.23,1.48.21,4.77,4.59,4.61,6.1Z"/><path class="b" d="m367.72,466.86c-.15.53-.49.81-.9.93-1.44.4-2.89.78-4.34,1.12-.49.11-1.05.08-1.28-.49-.25-.59.2-.96.61-1.22,1.34-.85,2.8-1.43,4.39-1.56.84-.07,1.57.21,1.53,1.23Z"/><path class="b" d="m319.27,581.12c-.85-.18-1.36-.6-1.26-1.34.13-.96.9-1.25,1.76-1.14.84.11,1.3.67,1.08,1.52-.22.84-.93,1-1.58.97Z"/><path class="b" d="m10.28,1301.49c-.21-18.63,10.22-33.64,27.66-39.72,1.32-.46,1.58-.92,1.19-2.28-4.01-14.17-7.9-28.38-11.92-42.55-.94-3.31-1.1-6.81-2.57-9.99-.41-.88.05-1.72.67-2.36,1.05-1.08,2.1-2.18,3.26-3.14,4.24-3.49,8.73-2.11,11.11,2.91,7.85,16.56,12.22,34.19,16.23,51.94.43,1.92,1.15,2.47,3.1,2.47,9.71-.05,19.2,1.34,28.21,5.19.66.28,1.33.56,1.95.92.8.46,1.84.9,1.37,2.09-.46,1.16-1.56.86-2.45.65-6.44-1.53-12.93-2.79-19.51-3.5-8.78-.95-17.54-.83-26.15,1.26-15.25,3.7-25.39,14.95-27.93,30.47-1.65,10.06,1.6,18.98,7.2,26.77,5.48,7.64,14.17,10.69,23.21,12.4,5.33,1.01,10.59.36,15.82-.77.59-.13,1.4-.04,1.26-1.06-.14-1.06-.8-.96-1.59-.77-.55.13-1.14.15-1.71.13-.79-.03-1.41-.41-1.58-1.21-.2-.9.61-1.01,1.15-1.29,5.12-2.61,10.65-4.31,15.7-7.09,2.33-1.28,4.66-2.56,7.01-3.81.47-.25,1-.85,1.52-.26.47.54-.08,1.08-.35,1.55-.53.87-1.27,1.56-2.14,2.1-1.71,1.06-3.44,2.09-5.17,3.1-.71.41-1.28.73-1.04,1.81.5,2.16.67,2.32,2.58,1.12,8.4-5.27,16.28-11.11,21.66-19.69,7.04-11.22,5.74-22.24-.73-33.15-.93-1.57-2.41-2.65-3.67-3.92-.65-.66-1.36-1.47-.69-2.46.58-.85,1.51-.6,2.37-.4,2.64.61,4.46,2.4,5.79,4.55,6.55,10.58,8.68,21.66,3.33,33.43-3.71,8.15-9.63,14.41-16.93,19.44-3.26,2.25-6.62,4.35-10.17,6.08-1.54.75-1.79,1.59-1.39,3.19,5.62,22.08,10.59,44.3,15.16,66.61.76,3.73,1.48,7.47,2.21,11.21.21,1.07.54,2.19-.98,2.63-1.46.42-2.34-.2-2.83-1.55-1.54-4.25-3.15-8.48-4.63-12.76-7.03-20.3-14.03-40.6-20.37-61.13-.62-2-1.31-2.32-3.4-1.91-14.03,2.74-27.16.33-38.59-8.4-8.33-6.37-11.77-15.51-12.23-25.83-.05-1,0-2.01,0-3.02Zm34.69-41.56c.78-.13,1.55-.29,2.33-.39q2.84-.38,1.99-3.19c-4.36-14.42-9.22-28.68-13.88-43-.82-2.52-1.67-5.04-2.55-7.54-.16-.45-.09-1.25-1.02-1.06-1.69.35-3.16,2.85-2.66,4.55,2.17,7.44,4.33,14.88,6.5,22.31,2.59,8.88,5.18,17.77,7.81,26.64.21.73.12,1.88,1.47,1.68Zm35.22,113.76c.1-.03.2-.05.31-.08-.03-.35-.03-.7-.11-1.04-1.53-6.72-3.01-13.46-4.62-20.17-1.78-7.4-3.68-14.78-5.54-22.16-.15-.58-.06-1.41-.86-1.54-1.51-.25-3.12,1.76-2.64,3.27,3.12,9.71,6.25,19.43,9.39,29.14,1.35,4.2,2.72,8.39,4.08,12.58Zm-41.14-161.12c1.62,4.77,3.24,9.54,4.87,14.31-.86-5.03-2.6-9.76-4.87-14.31Z"/><path class="b" d="m42.22,1325.04c-13.58-8.37-18.88-20.29-16.6-35.97-1.19,1.32-1.46,2.88-2.16,4.21-.41.79-.86,1.62-1.9,1.45-1.11-.19-1.44-1.13-1.48-2.11-.17-4.97,1.89-9,5.72-11.95,3.55-2.73,7.58-2.45,11.45-.64,5.22,2.46,8.99,6.46,11.16,11.79,3.69,9.07,4.65,18.48,2.79,28.12-.23,1.19-.61,2.37-1.07,3.5-2.25,5.56-7.18,7.72-12.8,5.68-1.77-.64-3.42-1.52-4.87-2.72-6.81-5.64-11.78-12.53-14.27-21.1-.31-1.05-.44-2.11-.28-3.2.15-1.02.66-1.82,1.76-1.86,1.06-.04,1.4.8,1.6,1.71,1.9,8.51,6.71,15.14,13.43,20.49,2.12,1.69,4.51,2.86,7.52,2.59Zm-12.53-28.66c-.23,6.59,2.39,12.53,6.54,17.9,1.85,2.39,3.86,4.66,6.53,6.18,2.43,1.38,3.09,1.09,3.61-1.58,1.81-9.29.33-18.16-3.81-26.57-1.79-3.63-4.66-6.33-8.46-7.94-1.15-.49-1.82-.29-2.3.96-1.34,3.45-2.23,6.97-2.11,11.05Z"/><path class="b" d="m56.5,1264.99c6.03.02,12.16.61,18.23,1.9,1.5.32,2.86.95,4.19,1.65.91.48,1.85,1.08,1.61,2.28-.25,1.26-1.39,1.28-2.4,1.33-3.69.19-7.31-.52-10.94-.94-5.44-.63-10.89-.86-16.36-.81-1,0-2.02-.04-3-.22-1.2-.22-2.24-.82-2.23-2.23,0-1.34.92-2.06,2.13-2.37,2.82-.74,5.72-.48,8.76-.6Z"/><path class="b" d="m20.66,1299.1c-1.68.06-3.65-1.88-3.65-3.59,0-.6.13-1.14.72-1.45.61-.32,1.14-.09,1.56.34.65.67,1.29,1.31,2.18,1.69.77.33,1.38.87,1.07,1.83-.28.87-1.06,1.09-1.87,1.19Z"/><path class="b" d="m88.37,1272.53c-.04,1.1-.65,1.66-1.63,1.63-1.24-.04-2.3-.57-2.49-1.91-.16-1.08.63-1.53,1.6-1.54,1.27-.01,2.18.56,2.52,1.82Z"/><path class="b" d="m272.27,214.36c1.75.35,3.05.11,4.36-.3,1.03-.33,2.07-.66,3.16-.58,1.2.08,2.33.37,2.61,1.78.28,1.4-.58,2.19-1.71,2.64-.99.39-2.07.56-3.12.83-.73.19-1.85,0-1.93.99-.07.93,1.07,1.01,1.74,1.37.5.27,1.07.41,1.6.64.85.37,1.51.93,1.4,1.94-.11,1.02-.89,1.59-1.78,1.54-1.42-.08-1.22.74-1.35,1.67-.39,2.81-1.86,5.27-2.83,7.89-3.39,9.18-6.59,18.41-7.43,28.27-.35,4.07.06,8.03,1.24,11.93.41,1.37.77,2.84-.8,3.61-1.67.82-2.7-.44-3.53-1.65-2.35-3.44-2.61-7.41-2.57-11.38.08-8.17,2.35-15.89,5-23.52,1.63-4.69,3.59-9.24,5.99-13.6.72-1.32,1.33-2.75,3.29-3.25-2.39-1.54-4.68-2.74-4.51-5.78.04-.62-.61-.75-1.08-.87-3.39-.84-3.73-4.59-1.23-7,2.24-2.15,5.05-3.26,7.92-4.25,1.42-.49,3.28-.42,4.25-1.34,1.12-1.06-.44-2.66-.45-4.12-.04-5.62,1.64-10.77,3.99-15.75,7.64-16.2,19.41-28.9,33.71-39.38,7.6-5.57,15.57-10.6,23.58-15.56,1.41-.87,1.63-1.51.81-2.98-5.86-10.47-13.55-19.41-22.31-27.53-20.53-19.03-44-33.34-69.86-43.91-12.54-5.12-25.38-9.27-38.46-12.74q-3.58-.95-5.16,2.4c-4.07,8.57-7.96,17.21-11.37,26.07-4.74,12.29-8.76,24.8-12.33,37.47-8.54,30.32-13.4,61.18-13.76,92.71-.17,14.68,1.85,29.1,5.4,43.32.21.84.49,1.66,1.03,2.36,10.6,13.64,23.85,23.4,40.83,27.55,11.84,2.89,23.87,3.34,35.99,2.45,2.08-.15,4.15-.29,6.23-.37,1.11-.04,2.31.09,2.53,1.45.21,1.31-.81,1.91-1.86,2.29-.87.31-1.78.6-2.7.73-15.92,2.28-31.7,1.87-47.15-2.98-12.79-4.02-23.21-11.68-32.58-21.13-4.12-4.16-6.35-8.8-7.91-14.37-6.16-21.99-6.07-44.28-4.37-66.76,2.29-30.16,9.25-59.33,18.33-88.05,4.84-15.3,10.99-30.1,18.11-44.49,1.44-2.91,1.46-2.92-1.79-3.12-.5-.03-1,0-1.54-.01-.22,1.01.79,1.28,1.09,1.95.28.63.45,1.22.04,1.83-.42.63-1.09.73-1.73.53-2.18-.65-3.82-2.03-4.71-4.11-.78-1.83.4-3.15,1.55-4.38,3.17-3.35,7.09-5.65,11.25-7.46,2.78-1.21,5.34-3.25,8.67-2.82.41.05.63-.27.86-.54,3.63-4.29,8.96-5.84,13.62-8.46.82-.46,1.66-.23,2.51,0,13.38,3.65,26.07,9,38.3,15.51,7.24,3.85,14.27,8.05,21.09,12.58,1.14.76,1.85.85,2.9-.2,12.94-13.03,28.78-21.33,45.71-27.79,2.68-1.02,5.51-1.68,8.18-2.73,3.62-1.43,6.52-.52,9.12,2.2,4.88,5.1,9.33,10.56,13.57,16.19,8.97,11.88,16.41,24.62,21.89,38.51,1.49,3.77.86,6.64-1.6,9.47-2.52,2.9-5.41,5.37-8.74,7.28-1.01.58-1.77,1.12-1.67,2.43.04.47-.17.99-.39,1.44-.38.78-1.07,1.2-1.94,1.05-.8-.15-.82-.86-.9-1.53-.05-.38.18-.87-.33-1.17-.58.47-.29,1.19-.51,1.76-.52,1.29-.89,2.92-2.43.72-.53-.75-1.05-.09-1.49.09-1.68.68-3.38,1.21-5.21,1.27-2.87.1-3.85-.79-4.23-3.66-1.65-12.47-3.61-24.89-6.59-37.13-1.03-4.2-2.46-8.27-3.98-12.3-1.2-3.17-1.41-3.31-4.7-2.2-9.36,3.16-18.4,7.03-26.89,12.12-3.21,1.93-6.26,4.08-9.28,6.29-1.47,1.07-1.2,1.63.08,2.6,11.98,9.13,22.87,19.45,32.94,30.65,6.56,7.3,12.4,15.12,17.17,23.7.74,1.34,2.02,2.82-.52,3.76-.17.06-.28.48-.31.75-.26,2.53-.74,4.98-2.48,7-.12.14-.22.42-.17.58,1.66,5.05-1.32,8.98-3.21,13.15-.61,1.36-1.49,2.57-1.86,4.09-.38,1.58-1.65,2.33-3.28,2.17-1.68-.17-3.24-.77-4.4-2.04-1.69-1.86-3.33-3.76-4.9-5.71-.47-.59-.71-.9-1.47-.38-13.81,9.62-27.78,19.06-38.26,32.59-5.89,7.6-10.96,15.64-13.87,24.91-.9,2.88-.98,5.78-1.09,8.73-.03.81.3,1.17.97,1.45.92.38,1.53,1.04,1.71,2.06.19,1.09-.13,1.87-1.33,1.37-1.48-.62-2.84-.23-4.21.14-3.51.97-6.94,2.16-10.17,4.57Zm94.37-129.36c5.86-4.59,11.91-8,18.79-9.65,1.62-.39,1.5-.92,1.01-2.12-1.82-4.46-3.73-8.88-5.95-13.16-7.52-14.52-17.29-27.46-28-39.74-.97-1.12-1.76-.82-2.81-.45-11.03,3.84-21.63,8.64-31.68,14.6-7.13,4.22-13.73,9.19-19.99,14.63-1.13.98-.93,1.47.19,2.17,1.46.92,2.83,1.96,4.23,2.97q3.4,2.43,6.72-.24c.17-.13.34-.26.51-.39,11.06-8.47,23.57-13.94,36.85-17.84.58-.17,1.59.19,1.61-.97.03-2.49,1.51-1.8,2.76-1.15,1.98,1.02,3.24,2.78,4.37,4.65,4.61,7.61,6.27,16.16,7.97,24.69,1.43,7.18,2.52,14.42,3.42,22.02ZM220.33,27.79c55.7,16.92,101.57,47.25,135.15,95.39.64-1.92,1.13-3.79,1.89-5.53.48-1.09.37-1.81-.35-2.7-3.03-3.74-5.91-7.61-9.01-11.29-22.72-26.95-49.84-48.51-80.68-65.46-11.75-6.46-24.04-11.66-36.88-15.52-.72-.22-1.46-.67-2.26-.13-2.61,1.76-5.24,3.5-7.87,5.25Zm-18.24,9.28c2.73.59,4.95,1.01,7.15,1.54,14.98,3.62,29.58,8.37,43.83,14.26,29.29,12.11,55.54,28.78,77.64,51.65,8.67,8.97,15.66,19.1,20.14,30.84.16.41.11,1.05.91,1.07.47-.93.91-1.91,1.45-2.84,1.37-2.34,1.21-4.33-.44-6.68-7.23-10.33-15.16-20.08-23.84-29.19-22.25-23.36-48.85-40.56-77.79-54.32-10.92-5.19-22.3-9.25-34.16-11.81-1.13-.24-2.22-.48-3.4-.22-4.17.9-7.46,3.46-11.49,5.7Zm165.56,53.49c4.85-.47,7.77-3.73,11.76-4.78,2.44-.64,4.29-3.14,5.86-5.42-6.46,2-12.29,5.07-17.63,10.2Zm-19.46,50.97c-.98-2.69-1.75-4.76-2.5-6.84-.31-.88-.73-.86-1.4-.33-1.28,1.02-2.61,1.98-4.2,3.18,3.14.36,5.02,2.52,8.1,4Z"/><path class="b" d="m188.53,102.8c3.1-10.95,7.53-21.39,11.97-31.83,2.39-5.61,4.86-11.19,7.29-16.79.17-.39.34-.79.57-1.16.53-.85,1.25-1.46,2.31-1.15,1.05.3,1.38,1.15,1.37,2.18-.01,1.83-.52,3.57-1.15,5.24-2.49,6.65-4.99,13.31-7.64,19.9-4.62,11.46-8.93,23.03-11.97,35.03-.85,3.34-1.77,6.66-2.73,9.97-.27.93-.53,2.13-1.9,1.93-1.32-.19-1.3-1.39-1.37-2.37-.39-5.95.66-11.73,2.24-17.43.33-1.18.67-2.35,1-3.53Z"/><path class="b" d="m193.39,258.69c-10.59-4.7-18.05-12.6-18.03-26.54,0-1.29.01-2.58.11-3.87.07-.96.32-1.92,1.49-2.07,1.06-.14,1.76.48,2.25,1.35.79,1.42.99,2.98,1.11,4.56.35,4.48,1.3,8.77,3.71,12.67,1.59,2.58,3.79,4.46,6.25,6.12,1.85,1.24,3.62,2.59,5.17,4.2.83.87,1.88,1.88,1.05,3.18-.78,1.22-2.05.61-3.1.39Z"/><path class="b" d="m180.69,164.94c-.51,1.08-.51,2.9-2.08,2.87-1.58-.03-2.02-1.74-2.24-3.05-.7-4.08-.25-8.17.42-12.21.96-5.75,2.68-11.31,4.3-16.9.31-1.08.79-2.17,2.11-2.04,1.46.14,1.71,1.4,1.72,2.58.04,3.62-.89,7.11-1.68,10.61-1.21,5.34-2.03,10.71-2.23,16.18-.02.64-.21,1.27-.32,1.96Z"/><path class="b" d="m326.07,33.73c1.05.23.99.91.5,1.58-.81,1.11-1.88,1.98-3.06,2.66-5.17,2.97-10.09,6.31-14.89,9.83-.51.38-1.1.69-1.69.92-.63.24-1.29.16-1.77-.4-.57-.66-.36-1.34.05-1.98.19-.3.43-.58.69-.82,5.18-4.73,10.88-8.65,17.41-11.27.86-.35,1.77-.6,2.75-.52Z"/><path class="b" d="m330.18,31.28c.44-.88,1.21-1.32,1.92-1.78,1.56-1.01,3.12-2.07,4.97-2.51.65-.16,1.33-.18,1.68.55.32.65-.12,1.16-.54,1.5-1.97,1.58-4.19,2.77-6.5,3.73-1.2.5-1.65-.4-1.54-1.49Z"/><path class="b" d="m245.44,32.55c-2.51-.1-4.59-.97-6.68-1.83-3.39-1.4-6.78-2.74-10.53-2.76-.69,0-1.31-.19-1.48-.97-.15-.72.2-1.25.82-1.6,1.07-.6,2.21-.65,3.34-.27,4.43,1.49,8.79,3.14,12.85,5.49.67.39,1.33.82,1.68,1.94Z"/><path class="b" d="m221.81,34.21c2.26.92,4.46,1.8,6.64,2.73.7.3,1.74.63,1.46,1.55-.25.8-1.24.39-1.92.3-2.51-.31-4.88-1.16-7.32-1.77-2.85-.71-5.69-1.55-8.62-.22-.75.34-1.82.51-2.2-.58-.35-.99.44-1.57,1.21-2.02,1.86-1.1,3.83-1.56,5.99-1.04,1.6.39,3.22.71,4.77,1.05Z"/><path class="b" d="m468.17,284.53c.24,1.72.26,3.44-1.65,4.21-2.54,1.02-5.24,1.1-7.32-.79-1.3-1.18-2.04-.91-3.28-.21-25.4,14.27-47.17,33.01-66.78,54.36-18.93,20.61-35.98,42.63-49.2,67.43-1.15,2.16-2.15,4.4-3.39,6.5-.54.92-.67,2.81-2.66,1.87-.1-.05-.51.44-.7.72-8.23,12.05-17.49,23.38-25.21,35.79-8.33,13.39-15.6,27.34-22.26,41.62-.82,1.76-1.9,2.43-3.67,1.91-2.82-.82-5.65-1.62-8.39-2.73-1.58-.64-2.3-1.61-2.48-3.35-3.18-30.46-1.9-60.56,7.17-90.05.1-.34.18-.69.32-1.23-1.12-.06-2.45.16-2.77-1.28-.33-1.5.55-2.74,1.69-3.2,2.37-.96,3.05-2.98,3.99-4.98,14.83-31.47,36.15-57.55,64.51-77.84,24.55-17.56,51.26-30.9,79.51-41.31,7.55-2.78,14.99-5.82,22.51-8.69,1.04-.4,1.29-.9,1-1.93-.31-1.12-.23-2.27-.09-3.43.96-8.16,7.42-11.6,14.66-7.7,1.27.68,1.88.54,3.09-.28,4.61-3.12,9.04-6.67,14.73-7.78,1.13-.22,2.12-.07,3.11.46,5.07,2.76,9.21,6.6,12.86,11.01,1.18,1.42,1.27,2.87.27,4.55-3.42,5.74-7.13,11.32-9.63,17.57-.32.79-.8,1.67-1.89,1.37-.91-.25-1.02-1.15-1.04-1.94-.07-2.07.67-3.95,1.48-5.8,1.54-3.5,3.71-6.63,5.87-10.05-2.84.43-5.52.68-8.11,1.28-2.94.68-5.79,1.7-8.7,2.51-1.16.32-1.66.83-1.35,2.14.88,3.78.8,7.57-.24,11.31-.36,1.3.13,1.44,1.24,1.43,2.38-.02,4.72-.43,7.08-.66,1.07-.1,2.37-.25,2.65,1.15.27,1.32-.87,1.84-1.9,2.24-3.15,1.24-6.45,1.39-9.77,1.15-1.46-.11-2.07.29-2.16,1.82-.05.79.9,2.01-.47,2.39-1.17.32-2.01-.53-2.66-1.45-1.15-1.8-1.13-3.47.03-5.37,1.12-1.83,1.59-4,1.81-6.13.77-7.32-.69-13.77-7.39-18.04-.42-.37-.85-.74-1.27-1.11-3.14-1.79-5.37-1.62-7.07.6-1.27,1.66-1.62,3.63-1.73,5.66-.06,1.16.47,1.16,1.3.7.57-.32.95-.56,1-1.41.1-1.97,1.35-2.49,3.07-1.43.6.37,1.12.89,1.68,1.33,6.22,4.78,8.26,19.35,4.6,25.85,1.39-.64,2.72-.59,4.03-.72Zm-149.79,127.69c.67-.19.72-.85.97-1.33,11.93-22.57,25.9-43.77,42.06-63.55,16.19-19.83,34.52-37.33,55.81-51.65,13.27-8.93,27.29-16.49,42.03-22.71,2.3-.97,1.83-2.27,1.3-3.9-.68-2.09-2.03-.76-2.96-.46-6.29,2.03-12.47,4.41-18.42,7.3-24.88,12.06-47.79,27.11-69.19,44.63-26.11,21.38-47.42,46.76-64.73,75.61-1.65,2.75-3.1,5.61-4.76,8.62,11.72-2.19,13.49-1.44,17.9,7.44Zm-22.48.49c-.02-1.56,0-3.04-.05-4.53-.07-2.19-.71-4.17-2.77-5.25-2.42-1.27-4.99-2.15-7.72-2.62-1.91-.33-2.69.11-3.16,2.14-4.42,19.1-6.95,38.42-7.18,58.04-.04,3.13-.11,3.09,2.89,2.22,5.85-1.7,11.61-2.08,16.98,1.53.98.66,1.24-.04,1.59-.66,9.43-16.9,21.32-32.04,33.52-46.96.21-.25.55-.47.32-1-1.03-.19-2.07.08-3.11.32-3.85.88-7.27,2.64-10.46,4.91-.61.43-1.21,1.26-2.07.81-.82-.44-.26-1.31-.27-1.98-.06-2.92-.75-5.69-2.06-8.29-1.08-2.14-2.87-3.1-5.26-3.07-3.04.03-5.78.93-8.26,2.69-.86.61-1.6,1.45-2.93,1.71Zm3.08-11.05c31.31-57.24,78.28-97.36,135.24-126.9-.53-.02-1.01.03-1.45.19-23.39,8.39-45.88,18.61-67.21,31.48-34.96,21.09-62.02,49.37-80.04,86.13-.78,1.59-.96,2.19,1.17,2.49,4.78.69,9.19,2.33,12.3,6.6Zm22.71,11.07c4.1-1.75,7.65-2.52,11.37-1.85,1.08.19,1.34-.39,1.7-1.15,1.41-2.91,2.8-5.83,4.34-8.67,10.08-18.7,22.83-35.54,36.46-51.73,23.96-28.46,51.33-52.85,84.51-70.24.38-.2.81-.37,1.09-.67.61-.66.57-1.56.24-2.23-.43-.88-1.11-.14-1.61.1-3.32,1.55-6.62,3.13-9.93,4.7-26.41,12.59-49.88,29.28-70.07,50.49-20.42,21.46-37.59,45.34-52.3,71.01-1.85,3.23-3.67,6.48-5.8,10.24Zm-39.67,53.49c-1.83.15-3.65.84-5.52,1.33-1.15.3-1.6.92-1.55,2.15.23,6.16.33,12.32.59,18.48.2,4.91.28,4.88,5.31,5.52,1.03.13,1.55-.09,1.93-1.1,2.94-7.79,6.34-15.38,10.3-22.71.61-1.12.27-1.6-.72-2.16-3.23-1.8-6.64-2.12-10.34-1.51Zm211.57-211.27c-3.14-3.56-6.41-6.2-9.79-8.74-1.06-.79-1.79-.67-2.85-.01-3.18,1.96-6.43,3.8-9.68,5.62-2.9,1.63-2.91,1.6-.87,4.29.35.46.68.93.99,1.41,1.71,2.63,1.72,2.66,4.73,1.47,5.45-2.16,11.16-3.22,17.48-4.05Z"/><path class="b" d="m462.56,255.06c1.21.75,1.89,1.92,2.41,3.18.25.61.4,1.32-.24,1.76-.57.39-1.1-.05-1.54-.4-1.51-1.19-3.02-2.4-4.51-3.63-.53-.44-1.33-.84-.89-1.71.42-.85,1.23-.86,2.05-.65.48.13.96.23,1.45.34.42.37.85.74,1.27,1.11Z"/><path class="b" d="m348.83,321.94c-1.48,2.38-3.22,3.55-4.82,4.8-20.52,15.97-36.51,35.7-48.85,58.5-.75,1.39-1.57,2.75-2.44,4.07-.45.69-1.01,1.64-2.04,1.02-1.04-.63-.43-1.52-.05-2.27,4.23-8.26,8.86-16.29,13.97-24.03,10.05-15.24,22.59-28.07,37.45-38.64,1.89-1.35,3.78-2.81,6.77-3.44Z"/><path class="b" d="m360.19,312.93c.74-.17,1.18-.28,1.5.14.4.52.07.99-.25,1.35-1.6,1.86-3.61,3.26-5.55,4.73-.46.35-1.11.43-1.59-.04-.48-.48-.4-1.07-.04-1.57,1.57-2.24,3.64-3.82,5.94-4.6Z"/><path class="b" d="m276.6,487c-.25-4.66-.3-9.24.2-13.81.1-.95.13-2.33,1.39-2.34,1.36-.01,1.55,1.38,1.58,2.43.15,5.44.23,10.88.27,16.33,0,.74-.11,1.8-1.03,1.93-1.04.14-1.35-.9-1.63-1.69-.33-.94-.54-1.93-.78-2.83Z"/><path class="b" d="m463.32,152.62c.62-1.03,1.16-2.22,2.68-1.96,1.44.25,1.88,1.42,2.26,2.61.13.41.18.85.34,1.24.33.8.98,1.35,1.83,1.24,1.04-.14,1.03-1.11.98-1.87-.04-.7-.33-1.38-.51-2.07-.22-.87-.4-1.81.53-2.31.99-.54,1.82.05,2.42.83.52.67.9,1.44,1.44,2.31,10.87-7.98,22.57-14.71,32.59-23.74,1.92-1.73,3.61-3.71,5.45-5.53.71-.7.93-1.22.25-2.16-8.29-11.59-16.91-22.89-27.28-32.75-1.05-1-1.93-1.14-3.23-.75-6.2,1.83-12.24,4.2-18.58,5.56-2.33.5-4.67.96-7.04.37-1.41-.35-2.92-.73-2.54-2.77.06-.33.04-.55-.35-.61-2.53-.38-2.9-2.64-3.55-4.43-3.17-8.76-3.85-17.57-.56-26.54,2.22-6.07,6.5-9.88,12.26-12.24,3.32-1.36,6.7-2.64,10.14-3.65,2.94-.86,4.74-2.77,6.22-5.24,1.59-2.67,2.75-5.53,3.87-8.41,1.92-4.96,3.8-9.93,5.71-14.9,2.17-5.66,5.57-7.23,11.19-4.91,5.36,2.21,9.25,6.24,12.55,10.86,1.33,1.87,2.6,3.81,3.61,5.87,1.75,3.54,2.65,7.26,1.68,11.27-.8,3.28-1.31,6.63-2.13,9.9-1.77,7-.91,13.82,1.02,20.62,3.66,12.86,9.42,24.82,15.53,36.65.66,1.28,1.09,1.39,2.1.35,8.62-8.88,18.25-16.67,27.43-24.94,3.15-2.84,6.28-5.7,9.3-8.68,6.01-5.94,8.84-12.95,7.11-21.51-.63-3.09-.96-6.25-1.31-9.39-.34-3.05.32-5.86,2.45-8.2.77-.84,1.68-1.47,2.85-.94,1.11.5,1.28,1.64.99,2.6-1.41,4.7-.36,9.35.56,13.86,2.21,10.84-1.12,19.66-8.85,27.17-7.84,7.62-16.28,14.56-24.58,21.67-4.86,4.16-9.57,8.49-14.38,12.69-.72.63-.64,1.1-.24,1.83,1.38,2.52,2.8,5.03,4.02,7.63.76,1.63,1.25,1.31,2.35.27,13.47-12.76,27.45-24.92,42.47-35.83,3.54-2.57,7.23-4.96,11.2-6.85,1.18-.57,2.39-1.03,3.71-.98,1.51.06,1.91.86,1.21,2.16-.56,1.04-1.5,1.75-2.46,2.37-18.49,11.92-34.76,26.65-51.63,40.62-.11.09-.21.2-.32.29-1.19,1.01-3.29,1.96-3.36,3.04-.1,1.46,1.31,3.06,2.16,4.55,6.02,10.44,13.03,20.12,21.26,28.96,3.92,4.21,8.67,6.48,14.19,7.51,6.93,1.3,13.99,1.53,20.93,2.74,4.2.73,8.27,1.82,11.95,4.11,1.17.73,1.67,1.55,1.57,2.98-.25,3.65-.22,7.32-.5,10.97-.45,5.92-2.37,11.35-5.74,16.28-3.28,4.78-7.34,6.43-13.03,5.15-.68-.15-1.34-.58-2.22-.27.28,4.57-.41,9.12-.72,13.69-.24,3.62-1.27,6.88-3.88,9.57-1.03,1.06-2.11,1.68-3.54,1.75-9.05.41-17.11-2.67-25.15-6.47-4.75-2.25-4.76-5.86-4.65-9.95.15-5.83,1.7-11.52,1.76-17.36.03-3.41-.58-6.65-2.22-9.75-8.57-16.13-17.9-31.81-27.73-47.19-.98-1.53-1.54-1.72-3.03-.55-9.14,7.23-17.08,15.57-23.96,24.97-3.01,4.11-6.57,7.8-9.26,12.18-.92,1.5-1.09,2.78-.56,4.43,1.26,3.98,2.22,8.02,2.08,12.27-.06,1.96-.71,3.63-1.6,5.29-.27.52-.56,1.02-1.22,1.1-6.04.75-11.45,3.81-17.46,4.7-3.09.46-6.15.39-9.24.18-2.82-.19-4.62-1.77-5.75-4.24-1.54-3.37-2.29-6.96-2.77-10.6-.18-1.37-.76-1.92-2.1-2.18-4.76-.92-9.24-2.55-13.41-5.13-4.79-2.96-7.1-7.16-6.39-12.66.79-6.13,2.22-12.16,4.89-17.8,1.34-2.83,3.58-4.4,6.71-4.73,3.96-.42,7.89-.03,11.81.47.97.12,1.85.31,2.92-.06,1.56-.55,2.41.83,3.27,1.91.39.49.57,1.18,1.27,1.48Zm131.89,34.91c-.55,4.55-1.36,9-1.68,13.51-.04.63-.49,1.45.5,1.86,3.22,1.34,7.98-.3,9.84-3.25,4.43-7.01,5.31-14.76,5.01-22.79-.04-1.12-.72-1.44-1.55-1.77-3.23-1.31-6.63-1.88-10.05-2.36-5.97-.84-11.95-1.5-17.87-2.77-8.97-1.93-16.28-6.04-22.17-13.34-8.72-10.8-16.16-22.32-22.61-34.57-7.8-14.81-15.99-29.44-21.39-45.37-2.5-7.37-4.73-14.83-4.33-22.74.26-5.26,1.57-10.36,2.8-15.45.46-1.88.94-3.74.43-5.73-1.6-6.24-5.52-10.95-10.08-15.2-1.46-1.36-3.12-2.52-5.09-3.17-1.58-.52-2.58-.18-3.21,1.43-1.44,3.68-2.99,7.32-4.44,10.99-1.36,3.44-2.8,6.85-4.27,10.32,1.26-.74,2.33-1.64,3.43-2.5.65-.51,1.43-.83,2.2-.37.88.54.85,1.47.59,2.32-.53,1.68-1.5,3.08-2.82,4.26-2.17,1.93-4.63,3.39-7.24,4.62-5.02,2.36-10.32,3.99-15.52,5.86-7.64,2.75-11.11,8.57-11.95,16.16-.67,6.05.05,12.05,2.12,17.83.39,1.08.85,2.28.47,3.37-.52,1.47.34,1.32,1.21,1.38,3.48.26,6.64-1.01,9.87-1.98,6.46-1.94,12.7-4.65,19.46-5.54.93-.12,1.86-.31,2.77.02,1.27.45,2.19,1.2.93,2.48-.84.85-.3,1.1.28,1.58,1,.82,1.98,1.67,2.9,2.57,7.85,7.64,14.85,16.02,21.3,24.86,13.62,18.65,25.7,38.3,37.22,58.29,5.06,8.77,9.96,17.65,13.47,27.2.93,2.52,1.49,5.11,1.11,7.81-.08.57-.21,1.24-.81,1.43-.65.2-1.06-.36-1.38-.83-.86-1.28-1.67-2.59-2.7-4.2-.76,5.67-1.49,10.99-1.33,16.38.03,1.12.69,1.67,1.65,1.99,5.51,1.88,11.01,3.96,16.8,4.65,6.5.77,7.5,1.74,8.01-6.84.48-8.21,1.31-16.33,4.13-24.13,1.05-2.89,2.26-5.71,4.01-8.26Zm-104.9-16.79c.14.07.27.13.41.2,2.72-3.67,5.42-7.35,8.15-11.01,6.58-8.81,14.32-16.47,23.05-23.14,1.04-.79,1.41-1.36.52-2.55-1.46-1.96-2.79-4.01-4.08-6.08-.7-1.12-1.18-1.03-2.08-.17-2.03,1.93-4.14,3.78-6.29,5.58-7.62,6.37-16.1,11.54-24.24,17.19-4.17,2.89-8.91,4.88-12.81,8.2-1.21,1.03-2.8,1-4.31.39-.53-.21-1.12-.69-1.58-.59-3.16.71-4.72-1.45-6.42-3.42-.45-.52-.66-1.27-1.58-1.29-4.66-.11-9.31-.78-13.99-.43-1.37.1-2.46.47-3.03,1.94-2.09,5.41-2.97,11.08-3.72,16.78-.37,2.85,1.05,4.91,3.45,6.44,2.95,1.87,6.14,3.1,9.49,4.03,4.44,1.23,8.96,2.04,13.48,2.87,2.83.52,5.65,1.17,7.98,3.03.81.64,1.53,1.51.98,2.59-.53,1.03-1.62.88-2.5.57-4.02-1.37-8.24-.92-12.62-1.63.92,3.58,1.75,6.89,3.28,10,.53,1.07,1.39,1.54,2.63,1.45,3.73-.29,7.45-.54,11.02-1.79,3.59-1.26,7.12-2.73,10.87-3.5,1.02-.21,1.17-.83,1.23-1.69.18-2.84-.16-5.61-1.11-8.28-2.67-7.47-1.96-14.69,1.45-21.74.53-1.1,1.16-2.5,2.64-2,1.61.54,1.17,2.09.9,3.34-.34,1.58-.77,3.15-1.15,4.72Z"/><path class="b" d="m616.12,47.26c.4,1.45,1.37,1.86,2.09,2.49.92.8,1.64,1.74,1.04,3-.65,1.35-1.88,1.76-3.27,1.42-3.15-.77-5.08-2.82-5.95-5.9-.81-2.87-.83-5.81-.91-8.76-.07-2.69-.59-5.27-2.46-7.41-1.31-1.5-2.86-2.3-4.85-2.42-4.04-.24-7.83.83-11.61,2.02-.82.26-1.64.52-2.48.74-1.13.29-2.23.25-2.79-.95-.61-1.31.17-2.23,1.21-2.86,3.23-1.95,6.72-3.26,10.45-3.84,1.35-.21,2.72-.35,4.08-.35,7.86,0,13.61,5.71,14.2,14.07.29,4.12.29,4.13,4.28,5.22,3.8,1.03,7.18,2.93,10.38,5.14,2.56,1.77,4.08,4.29,4.09,7.46.02,6.62-.09,13.22-2.78,19.47-.56,1.29-1.4,1.98-2.73,2.47-8.6,3.11-16.97,1.83-25.27-1.15-.65-.23-1.29-.68-1.77-1.18-1.04-1.09-.59-2.41.88-2.74,1.01-.22,2,.09,2.99.24,5.11.74,10.21,1.73,15.42,1.33,5.75-.44,6.32-.98,7.22-6.56.59-3.62.83-7.28,1.01-10.94.07-1.43-.19-2.76-1.28-3.75-3.16-2.88-6.94-4.63-11.17-6.24Z"/><path class="b" d="m584.86,42.54c-.81-4.53,5.1-9.95,9.57-8.78.78.2,1.61.46,1.75,1.37.15.93-.57,1.42-1.28,1.79-.63.33-1.3.6-1.97.86-2.26.9-3.99,2.2-4.23,4.9-.1,1.09-.57,2.21-1.97,2.13-1.34-.07-1.68-1.16-1.87-2.28Z"/><path class="b" d="m626.32,67.47c.23,1.69-1.3,4.3-2.54,4.46-1.01.13-1.63-.38-1.81-1.38-.23-1.29,1.53-4.5,2.54-4.58,1.14-.09,1.64.64,1.81,1.49Z"/><path class="b" d="m456.63,77.45c-.46-4.99-.56-9.93.97-14.76.39-1.23.83-2.46,1.82-3.38.49-.46,1.07-.79,1.75-.53.73.28.78.97.78,1.63,0,.35-.03.73-.15,1.06-2.19,6.38-1.86,12.87-.89,19.4.17,1.14,1.05,2.93-.78,3.29-1.66.32-2.06-1.47-2.47-2.75-.42-1.3-.7-2.64-1.04-3.96Z"/><path class="b" d="m606.37,182.89c.78,4.55-.68,8.61-2.88,12.47-.53.92-1.3,1.95-2.57,1.25-1.21-.67-.86-1.87-.45-2.87,1.57-3.78,2.92-7.61,3.1-11.76.04-.88-.02-2.23,1.06-2.34,1.3-.14,1.23,1.31,1.54,2.2.12.33.14.7.2,1.05Z"/><path class="b" d="m576.61,223.22c-3.26-.13-6.62-.94-9.73-2.68-.72-.4-1.12-1.14-.83-2.02.32-.95,1.09-1.38,2.01-1.22,3.09.53,6.21.98,9.2,1.98,1,.33,1.83.96,1.63,2.19-.17,1.08-1.04,1.46-2.28,1.76Z"/><path class="b" d="m480.39,196.66c-.44.06-1.36.23-2.29.3-.97.07-1.71-.34-1.94-1.33-.24-1.03.35-1.74,1.22-2.01,2.19-.67,4.42-1.24,6.65-1.78.68-.16,1.29.16,1.63.79.4.73.12,1.39-.35,1.99-1.13,1.44-2.84,1.55-4.92,2.04Z"/><path class="b" d="m469.88,198.84c-1.21.23-2.41.26-3.6-.15-.74-.26-1.26-.7-1.21-1.55.04-.74.52-1.24,1.18-1.35,1.75-.31,3.52-.55,5.29-.73.65-.06,1.29.23,1.55.92.31.79-.1,1.38-.65,1.88-.72.66-1.65.81-2.57.97Z"/><path class="b" d="m80.38,93.3c-5.05-1.7-9.09-2.77-12.92-4.43-2.9-1.26-4.56-3.9-4.07-6.96,1.06-6.72,3.14-13.11,6.4-19.11.96-1.77,2.29-2.44,4.22-2.02,8.82,1.9,17.33,4.57,25.2,9.16,3.13,1.83,4.05,4.34,3.68,7.7-.24,2.17-.8,4.24-1.61,6.24-1.24,3.06-2.59,6.08-3.9,9.11-.47,1.1-1.25,1.9-2.5,1.46-1.29-.46-1.25-1.59-.93-2.72.68-2.44,1.89-4.66,2.94-6.94,1.15-2.49,2.06-5.06,2.81-7.68.41-1.42-1.81-4.14-3.26-4-.18.02-.37.19-.49.35-.2.25-.22.53.07.73,3.31,2.25,1.68,4.92.49,7.4-.7,1.46-1.84,2.72-2.86,4.02-.89,1.13-1.88,2.17-2.81,3.26q-2.04,2.39.68,3.75c.32.16.64.33.92.55.84.68,1.42,1.51.91,2.61-.53,1.15-1.54,1.19-2.58.85-3.83-1.22-7.66-2.46-10.39-3.34Zm3.8-25.92c-3.81-1.23-7.22-2.29-10.61-3.44-1-.34-1.08.32-1.3.9-1.88,5.05-3.68,10.12-4.74,15.42-.32,1.61-1.4,3.61-.8,4.72.69,1.28,3.11.85,4.69,1.49.46.19.99.21,1.45.41,2.82,1.23,5.11.94,6.86-1.92.65-1.07,1.86-1.78,2.71-2.75.67-.76,2.25-1.25,1.84-2.3-.36-.92-1.9-.69-2.96-.77-1.6-.12-3.27-.22-3.96-2-.68-1.74.32-3.06,1.42-4.24,1.61-1.72,3.29-3.38,5.41-5.54Zm-1.36,7.45c.95.3,1.75.55,2.55.82,4.05,1.38,4.97,4.04,2.43,7.42-1.29,1.71-2.89,3.19-4.27,4.84-.37.45-1.79.83-.59,1.74.89.67,1.61.32,2.28-.66,1.04-1.54,2.3-2.94,3.51-4.36,1.39-1.64,2.87-3.22,4.23-4.88.37-.45,1.1-.99.07-1.75-2.69-1.99-2.79-2.88-1-5.62.26-.4.81-.71.61-1.29-.28-.84-4.33-1.92-5.01-1.3-1.69,1.53-3.36,3.09-4.81,5.04Z"/><path class="b" d="m69.68,108.17c1.56.55,1.77.88,1.22,2.61-.76,2.4-1.46,4.82-1.67,7.34-.11,1.26-.84,2.84.79,3.63,1.72.83,4.37.02,5.42-1.54,1.44-2.15,1.71-4.51,1.08-7.01-.2-.8-1.16-1.91.1-2.44,1.13-.47,2.03.48,2.65,1.39,1.27,1.88,1.12,3.96.68,6.03-1.35,6.4-5.91,9.16-12.17,7.35-1.24-.36-2.48-.75-3.68-1.23-3.45-1.39-6.11-3.54-6.6-7.51-.51-4.2,1.35-7.44,4.54-9.89,2.88-2.21,6.31-2.72,9.84-2.11,2.81.48,4.17,2.09,4.32,4.95-1.43-.93-2.7-1.99-4.34-2.17-.79-.09-1.74-.58-2.19.61-.43-.47-.94-.55-1.56-.48-3.47.41-6.42,3.34-6.75,6.83-.17,1.81.3,3.4,1.8,4.59,1.1.87,1.8,1.11,1.92-.74.18-2.82,1.07-5.49,2.14-8.08.43-1.04.75-2.45,2.45-2.12Z"/><path class="b" d="m64.43,146.3c-1.79,5.58-6.13,8.19-10.94,6.59-5.97-1.99-9.5-7.42-7.92-12.19,1.83-5.54,8.2-8.98,13.51-6.77,3.97,1.66,7.9,6.29,5.35,12.36Zm-3.63-1.68c1.66-4.94-1.12-8.62-5.71-7.81-1.3.23-1.97.57-1.12,2.03,1.15,1.97,2.12,4.05,3.25,6.03.52.91,1.02,2.41,1.95,2.35,1.18-.08,1.19-1.73,1.62-2.59Zm-6.64,3.95c-1.81-3.02-3.16-5.73-3.35-9.09-2.74,3.47-1.75,6.22,3.35,9.09Z"/><path class="b" d="m49.59,160.35c-2.05-.66-4.11-1.3-6.15-2-.82-.28-1.72-.68-1.54-1.77.17-.98,1.12-1.11,1.88-1.1,4.75.09,9.24,1.24,13.36,3.64.94.55,1.8,1.46,1.22,2.67-.62,1.28-1.84.9-2.85.55-1.97-.67-3.91-1.44-5.87-2.16-.02.05-.04.11-.06.16Z"/><path class="b" d="m48.29,167.21c-2.22-.7-4.43-1.1-6.33-2.31-.64-.41-1.5-.88-1.14-1.82.31-.8,1.18-.69,1.89-.59,3.83.51,7.63,1.2,11.31,2.39.27.09.55.19.78.34.88.57,2.12,1.05,1.68,2.39-.47,1.45-1.77,1.2-2.9.94-1.81-.41-3.61-.9-5.3-1.33Z"/><path class="b" d="m66.04,58.69c-1.99-1.13-3.91-2.39-5.94-3.46-16.02-8.45-33.47-12.56-50.91-16.61-3.05-.71-6.12-1.35-9.19-1.96v3.85c5.22,1.04,10.43,2.17,15.61,3.41.46.11,1.02.08,1.42.85-2.14,2-4.31,4.06-6.51,6.08-2.5,2.29-4.94,4.61-6.55,7.65-.91,1.71-1.63,3.46-.51,5.29,1.22,1.99,3.27,1.9,5.22,1.63,4.2-.58,8.37-1.32,12.57-1.88,3.93-.52,7.88-.56,11.8.12,5.22.91,6.93,3.66,5.12,8.58-2.28,6.17-6.2,11.34-10.71,16.01-6.84,7.1-14.55,13.25-22.01,19.68-1.83,1.58-3.64,3.17-5.45,4.76v7.15c4.84-4.41,9.79-8.72,14.71-13.05,7.61-6.69,15.39-13.21,21.38-21.51,3.12-4.33,5.9-8.85,6.76-14.28.74-4.7-1.56-8.8-6.03-10.43-4.57-1.66-9.32-1.56-14.06-1.23-4.23.29-8.4,1.11-12.56,1.94-1.06.21-2.59,1-3.16.03-.53-.91.76-2.02,1.41-2.94,1.5-2.13,3.52-3.77,5.39-5.55,2.19-2.07,4.33-4.2,6.44-6.36.71-.73,1.36-1.09,2.45-.79,12.83,3.55,25.6,7.27,37.52,13.35.63.32,1.33.53,1.8,1.26-4.43,4.29-8.68,8.74-12.64,13.48-8.04,9.62-14.1,20.43-19.21,31.81-4.7,10.47-8.32,21.27-9.7,32.74-.76,6.29-.18,12.44,2.16,18.92-7.57-2.9-15.08-5.54-22.65-7.95v4.3c8.4,2.7,16.7,5.68,24.91,8.96,3.18,1.27,3.83,1.16,4.93-2.12,3.31-9.83,7.34-19.35,11.88-28.66.64-1.31,1.57-2.57,1.17-4.28-1.5.45-2.22,1.61-2.96,2.74-5.35,8.19-9.23,17.05-12.03,26.4-.21.69-.17,1.53-.96,2.13-1.87-5.02-2.34-10.06-2.13-15.18.49-12.13,4.41-23.41,9.02-34.44,6.53-15.64,15.55-29.77,26.83-42.44.27-.3.41-1.01,1.18-.66-.09.28-.17.55-.27.82-2.19,5.93-4.41,11.86-6.56,17.81-.42,1.17-1.13,3.03.1,3.5,1.23.47,1.87-1.42,2.43-2.54,3.04-6.13,5.45-12.52,7.5-19.05.63-1.99,1.3-3.96,1.57-6.05.1-.73.25-1.39-.58-1.86Z"/><path class="b" d="m104.31,168.31c8.6-14.31,16.45-29.01,22.39-44.65,1.47-3.87,3.57-7.74,3.32-11.96-.72-12.11-2.9-23.97-7.44-35.3-1.39-3.47-3.2-6.78-4.57-10.22-.98-2.48-2.43-3.86-4.62-4.93-10.47-5.09-20.79-10.49-31.53-15.02-13.13-5.53-26.43-10.59-40.2-14.32-13.74-3.72-27.63-6.75-41.65-9.15v4.28c3.02.52,6.03,1.07,9.04,1.66,15.04,2.94,29.97,6.35,44.53,11.16,19.5,6.45,38.08,15.08,56.43,24.23.93.46,1.23.87,1.01,1.95-1.39,6.78-3.35,13.39-5.73,19.87-5.8,15.8-12.38,31.27-19.42,46.54-6.98,15.15-14.5,30.02-22.77,44.51-1.99,3.49-4.18,6.89-5.48,10.73-.17.51-.61,1.16-.03,1.58.56.42,1.1-.12,1.52-.45,2.18-1.68,4.03-3.68,5.59-5.94,8.66-12.51,15.64-25.96,22.33-39.57,5.96-12.13,11.3-24.55,16.32-37.08,4.36-10.87,8.83-21.72,11.31-33.24.11-.49-.09-1.18.7-1.47.21.48.4.93.6,1.38,5.51,12.85,7.9,26.39,9.01,40.22.12,1.55-.08,2.97-.65,4.41-3.22,8.24-6.95,16.25-11.02,24.1-7.34,14.18-15.29,28-24.18,41.26-2.89,4.31-6.39,6.94-12.12,6.97-7.44.04-14.92.97-22.08,3.39-.7.24-1.25.04-1.84-.25-14.8-7.22-29.69-14.23-44.76-20.88-2.77-1.22-5.54-2.42-8.33-3.59v5.08c10.36,4.42,20.61,9.13,30.82,13.94,2.92,1.38,2.9,1.43,2.25,4.58-.48,2.32.39,4.48,2.27,5.6,1.62.97,3.88.7,5.62-.75.6-.5,1.27-1.05,1.6-1.72.8-1.61,1.78-1.47,3.08-.67,3.27,2.03,6.75,2.9,10.66,2.39,4.77-.61,9.58-.85,14.37-1.29,1.2-.11,2.18-.29,1.61,1.55-.48,1.53.17,2.84,1.51,3.71,1.37.89,2.76.66,4.06-.15,1.18-.73,2.28-1.75,2.71-3,.82-2.35,2.56-3.67,4.39-5.13,3.76-3.02,7.16-6.44,9.87-10.47.82-1.22,1.31-1.13,2.11.04,2.14,3.17,4.15,6.4,5.45,10.01,1.4,3.89,2.47,7.89,1.59,12.03-1.75,8.23-7.35,12.92-14.97,15.49-7.63,2.57-15.46,2.07-23.27,1.02-17.44-2.37-33.32-9.17-48.73-17.3-5.71-3.01-11.35-6.15-17.02-9.23v6.37c6.81,3.69,13.59,7.42,20.53,10.85,15.73,7.76,32.06,13.51,49.71,14.82,8.66.64,17.11-.13,24.95-4.26,11.4-6,15.82-16.88,11.85-29.09-1.62-4.99-4.14-9.49-7.54-13.46-1.07-1.25-1.28-2.11-.29-3.48,1.8-2.5,3.51-5.09,5.1-7.73Zm-65.05,24.27c-.42.63-.95,1.63-1.75,1.33-1.11-.42-.64-1.58-.48-2.46.17-.98.81-.48,1.34-.32.49.35,1.6.39.9,1.44Z"/><path class="b" d="m203.85,434.44c-.89.47-1.65.31-1.88-.82-.14-.68-.13-1.46.04-2.13.67-2.57,1.39-5.13,2.17-7.67.28-.91.79-1.82,1.99-1.5,1.14.3,1,1.3.87,2.14-.42,2.77-1,5.51-1.93,8.16-.24.69-.62,1.29-1.27,1.82Z"/><path class="b" d="m98.1,403.32c-1.64-3.02-3.56-6.96-2.22-11.45,2.43-8.09,11.06-11.73,18.91-7.91,5.38,2.61,8.88,7.02,10.43,12.77,1.69,6.28-.68,10.79-6.69,13.36-6.59,2.82-15.98,0-20.44-6.77Zm19.86-10.6c-2.5-3.66-5.82-5.91-10.33-6.16-4.68-.26-7.67,2.5-7.74,7.2-.07,4.73,2.4,8.03,6.26,10.33,3.74,2.22,7.67,2.76,11.66.54,2.01-1.12,2.99-2.78,2.76-5.15-.24-2.52-1.41-4.64-2.61-6.76Z"/><path class="b" d="m195.26,401.33c-2.38-3.59-4.79-7.16-7.14-10.77-.57-.88-1.55-2.18-.65-2.88,1.07-.83,1.99.54,2.76,1.34,6.09,6.31,10.78,13.58,14.75,21.35.49.96,1.18,2.1-.04,2.88-1.35.86-2.08-.34-2.72-1.29-2.36-3.51-4.69-7.05-7.04-10.57.02-.02.05-.03.07-.05Z"/><path class="b" d="m111.02,393.05c.53.89,1.26,1.71.44,2.46-.72.66-1.49-.05-2.09-.53-1.52-1.2-3-2.45-4.48-3.69-.49-.41-1.13-.86-.71-1.59.43-.73,1.16-.35,1.75-.17,2.13.64,3.76,2.02,5.09,3.52Z"/><path class="b" d="m109.86,399.8c-1.17.54-2.48,1.9-3.58.48-.86-1.11.38-2.11,1.37-2.67,1.14-.64,2.58-1.64,3.62-.21.9,1.25-.67,1.72-1.4,2.39Z"/><path class="b" d="m115.5,399.76c.18,1.15,1.06,2.65-.48,3.68-.9.6-1.77-.02-2.29-.91-.72-1.24-.38-3.43.62-3.86.96-.41,1.64,0,2.16,1.08Z"/><path class="b" d="m117.78,398.26c-.99.62-1.8.24-2.5-.48-.61-.62-.6-1.4.07-1.88.95-.68,1.94-.47,2.66.46.51.66.42,1.34-.23,1.9Z"/><path class="b" d="m104.97,394.19c1-.32,2.07-.3,2.82.67.4.53.08,1.17-.52,1.42-1.07.45-2.14.45-2.88-.61-.4-.58-.1-1.08.58-1.48Z"/><path class="b" d="m112.82,390.68c.74-.35,1.4-.22,1.83.49.38.63.25,1.27-.35,1.7-.69.5-1.39.37-1.86-.31-.47-.69-.28-1.35.37-1.88Z"/><path class="b" d="m74.84,355.91c2.19-1.23,4.29-2.64,6.39-4.01.68-.45,1.79-.95,1.23-1.94-.46-.83-1.45-.21-2.16.02-7.23,2.31-13.87,5.93-20.48,9.56-20.66,11.36-40.47,24.05-59.82,37.47v5.81c8.8-6.19,17.71-12.21,26.77-18.03,15.73-10.1,31.78-19.68,48.07-28.86Z"/><path class="b" d="m214.95,411.27c-1.61-3.82-4.17-7.04-6.39-10.48-9.34-14.43-19.17-28.52-29.7-42.11-8.8-11.36-17.73-22.62-27.02-33.59-8.32-9.82-17.09-19.2-26.58-27.93-3.3-3.04-6.69-3.39-10.69-2.55-7.47,1.58-14.66,4.05-21.79,6.72-1.54.58-3.25,1.83-4.58,1.51-1.48-.34-1.6-2.67-2.27-4.14-.77-1.69-1.96-1.99-3.51-1.43-1.01.36-1.96.91-2.92,1.4-8.33,4.24-16.65,8.5-24.98,12.74-18.63,9.47-36.96,19.46-54.53,30.8v6.01c2.43-1.58,4.86-3.15,7.31-4.7,18.87-11.91,38.61-22.24,58.5-32.31,5.19-2.63,10.37-5.29,15.47-8.1,1.58-.87,2.12-.45,2.57,1.03,2.74,8.85,5.01,17.84,7.41,26.79,1.02,3.81,1.92,7.65,2.89,11.56-2.19.41-4.28,1.16-6.07,2.55-.85.66-1.86,1.46-1.1,2.68.7,1.12,1.79.5,2.72.16,1.01-.37,2.01-.78,3.02-1.16,3.06-1.13,5.03-4.1,4.76-7.35-.52-6.49-2.41-12.69-4.15-18.91-1.02-3.67-2.11-7.32-3.3-10.94-.4-1.22-.24-1.8.98-2.28,6.96-2.72,13.93-5.38,21.11-7.48,3.99-1.16,6.95-.59,10.13,2.51,9.67,9.47,18.78,19.42,27.42,29.81,13.33,16.03,26.24,32.39,38.33,49.37,7.21,10.13,13.86,20.66,20.8,30.98.8,1.19.58,1.63-.75,2.08-11.58,3.93-22.84,8.65-33.92,13.83-16.69,7.79-32.93,16.42-48.8,25.76-9.6,5.65-19.29,11.15-28.73,17.06-12.49,7.82-24.92,15.79-36.7,24.65-15.16,11.4-30.53,22.54-45.05,34.78-5.02,4.23-9.98,8.5-14.87,12.86v7.36c32.01-29.25,67.23-54.1,103.76-77.24,33.68-21.34,68.54-40.5,106.21-54.25.24,1.13-.14,2.01-.36,2.9-1.11,4.47-2.43,8.89-3.32,13.39-.4,2.01-1.33,2.83-3.11,3.47-7.5,2.72-14.8,5.93-22.06,9.24-26.11,11.88-50.66,26.58-74.76,42.03-21.43,13.74-42.35,28.23-62.51,43.81-14.58,11.27-28.6,23.14-41.65,36.16-.74.74-1.48,1.5-2.22,2.25v5.48c9.53-9.2,19.18-18.28,29.36-26.74,17.76-14.76,36.4-28.37,55.2-41.76,18.88-13.45,38.92-25.06,58.93-36.71,12.99-7.56,26.23-14.66,39.92-20.87,7.59-3.44,15.21-6.82,22.84-10.17,2.33-1.02,3.7-2.6,4.56-5.06,2.48-7.12,3.38-14.55,4.68-21.9.22-1.24-.05-2.39-.54-3.56Z"/><path class="b" d="m63.59,348.23c-13.06,6.82-26.1,13.67-38.96,20.86-8.42,4.71-16.62,9.72-24.63,15.01v3.74c8.64-5.79,17.47-11.28,26.59-16.34,12.94-7.18,26.17-13.86,38.67-21.82,1.79-1.14,3.66-2.18,5.1-3.92-2.49.22-4.64,1.35-6.77,2.46Z"/><path class="b" d="m173.95,407.73c-.42-.03-.85.04-.85-.64-.02-4.62-2.16-8.6-4.03-12.61-5-10.73-11.29-20.69-18.47-30.08-6.09-7.97-13.3-14.87-20.98-21.3-1.18-.99-2.27-1.09-3.72-.59-5.78,1.98-11.42,4.31-17.06,6.66-15.95,6.64-31.26,14.57-46.42,22.84-21.68,11.84-42.56,24.93-62.42,39.61v6.04c.72-.54,1.43-1.1,2.16-1.63,23.57-17.45,48.57-32.63,74.54-46.21,15.68-8.2,31.73-15.6,48.05-22.44,2.1-.88,3.55-.99,4.89,1.03.63.94,1.51,1.73,2.34,2.52,12,11.52,21.36,24.99,29.16,39.6,2.91,5.45,5.5,11.06,8.38,16.53.64,1.23.61,1.53-.72,2.02-9.43,3.51-18.69,7.45-27.71,11.93-21.74,10.8-42.52,23.23-62.62,36.83-4.64,3.02-9.1,6.31-13.63,9.48-22.14,15.47-42.93,32.59-63,50.64-.62.56-1.23,1.12-1.84,1.68v6.56c4.25-3.72,8.5-7.46,12.73-11.21,20.63-18.31,42.55-34.96,65.3-50.52,28.55-19.53,58.52-36.56,90.07-50.78,2.15-.97,4.17-2.25,6.24-3.42.58-.32,1.09-.79,1.03-1.52-.07-.83-.73-.97-1.41-1.02Z"/><path class="b" d="m132.57,384.06c-4.72-8.29-14.03-12.39-24.2-10.68-9.67,1.63-18.69,5.12-27.33,9.63-10.34,5.39-20.08,11.79-29.86,18.11-17.2,11.12-34.24,22.5-50.85,34.51-.11.08-.22.16-.33.24v3.64c11.91-9.19,24.57-17.31,37.12-25.57,12.71-8.53,25.32-17.22,38.69-24.72,9.94-5.58,20.22-10.33,31.5-12.54,9.6-1.88,17.46.69,23.1,9.03.68,1.01,1.43,3.13,2.86,2.17,1.36-.92-.03-2.62-.7-3.82Z"/><path class="b" d="m3.88,467.12c-1.04-1.66-2.45-2.98-3.88-4.29v7.63c.39.98.67,2.04.86,3.17.46,2.77.25,5.35-.86,7.6v7.88c6.49-4.88,8.52-15.04,3.88-21.99Z"/><path class="b" d="m135.77,391.97c-.42.37-.63.47-.71.64-.3.65-.62,1.31-.81,1.99-1.63,6.03-5.17,10.9-9.63,15.05-7.35,6.84-15.68,12.35-24.55,17.05-10.03,5.31-20.37,10.07-29.98,16.15-3.45,2.18-6.46,5.12-10.01,7.1-8.86,4.92-16.76,11.1-24.44,17.62-9.92,8.42-19.82,16.87-31.39,23.05-1.4.75-2.82,1.45-4.25,2.1v4.61c1.21-.46,2.41-.96,3.59-1.52,10.53-5,20.02-11.6,28.71-19.31,18.6-16.51,38.89-30.47,61.38-41.19,10.41-4.96,20.3-10.82,29.16-18.27,5.09-4.28,9.65-9.05,12.35-15.27,1.34-3.09,1.45-6.3.58-9.79Z"/><path class="b" d="m7.71,1021.75c-1.04-2.2-2.78-3.81-4.53-5.42-1.15-1.06-2.26-2.16-3.18-3.42v6.1c.54.36,1.09.71,1.66,1.04,2.2,1.28,4.12,2.66,4.25,5.51.02.51.22,1.03.83,1.1.69.08,1.05-.42,1.28-.96.57-1.36.29-2.67-.31-3.95Z"/><path class="b" d="m170.34,948.94c1.89-1.11,3.36-2.67,4.56-4.51,6.18-9.47,2.09-24.85-8.12-30.18-1.62-.84-1.73-1.29-.77-2.88,7.99-13.08,9.86-26.94,4.88-41.56-3.88-11.37-11.13-20.17-20.83-27.05-9.32-6.62-19.47-9.81-30.92-7.01-1.51.37-1.61-.42-1.94-1.44-4.5-13.73-16.12-25.69-32.37-27.41-16.51-1.75-31.76,2.12-45.36,11.63-9.68,6.77-17,15.47-19.54,27.43-.24,1.15-.92,1.25-1.83,1.33-7.23.68-13.21,3.36-18.11,7.58v7.63c3.72-4.58,8.57-7.88,14.71-9.5,7.69-2.03,14.02.31,19.2,6.13,1.38,1.55,2.62,3.24,3.91,4.87.34.43.52,1.14,1.25.96.79-.19.77-.97.87-1.58.26-1.57-.31-3-1.02-4.34-2.8-5.24-6.99-8.98-12.67-10.7-2.07-.63-2.11-1.45-1.59-3.15,2.26-7.38,6.64-13.36,12.3-18.43,12.74-11.4,27.87-16.12,44.73-15,14.9.99,24.51,9.5,30.17,22.91,1.23,2.92,1.13,2.88-1.61,4.39-6.23,3.43-11.69,7.62-14.13,14.7-.6,1.74-.74,3.51-.55,5.31.14,1.34.69,2.49,1.83,3.29.63.44,1.28.63,1.28-.48.08-11.48,8.08-16.36,17.1-20,11.65-4.7,22.26-1.93,31.97,5.45,9.4,7.15,16.16,16.22,18.97,27.76,3.35,13.73.25,26.25-8.46,37.31-4.25,5.4-9.45,9.63-16.21,11.62-5.91,1.74-11.51,1.23-16.73-2.2-1.8-1.18-3.56-2.44-5.35-3.63-.81-.54-1.71-1.51-2.68-.68-1.08.93-.2,2.08.33,2.92,2.95,4.69,7.09,7.85,12.48,9.3,8.42,2.27,15.89-.14,22.89-4.7,3.08-2.01,5.84-4.45,8.21-7.27.82-.98,1.56-.99,2.61-.49,1.72.83,3.23,1.93,4.4,3.4,3.6,4.52,5.29,9.66,4.76,15.46-.24,2.57-1.19,4.88-2.87,6.86-2.51,2.96-3.67,3.05-6.52.63-4.78-4.07-10.21-6.4-16.6-5.88-5.15.42-9.54,4.08-10.95,9.03-.14.5-.37,1,.23,1.31.56.29.94-.08,1.29-.47.53-.59,1.05-1.18,1.6-1.75,4.9-5.03,9.86-5.85,16.19-2.68,14.54,7.28,18.39,25.06,8.31,38.37-9.05,11.96-24.67,13.84-36.59,4.02-12.19-10.05-18.93-23.09-19.75-38.99-.23-4.51.61-8.86,2.71-12.93.46-.88,1.4-2.02.09-2.85-1.16-.74-2.04.29-2.76,1.05-2.63,2.81-4.15,6.19-4.69,9.99-.42,2.99-.77,6.01-.37,9.02.22,1.68-.46,2.14-1.97,2.18-2.37.07-4.74.25-7.1.4-.89.06-1.68-.08-2.41-.68-4.81-3.95-8.21-8.79-9.61-14.94-.25-1.08-.16-1.9.7-2.71,2.99-2.81,6.13-5.43,9.42-7.88.83-.62,1.52-.54,2.39-.23,3.12,1.12,6.32,1.94,9.67,1.96.8,0,1.59-.03,2.32-.37.79-.37,1.23-1.02,1.15-1.9-.08-.87-.77-1.16-1.51-1.29-1.49-.24-3.01-.35-4.47-.69-10.51-2.46-17.12-9.27-20.8-19.11-2.65-7.06-3.53-14.5-4.2-21.96-.05-.61.13-1.27-.48-1.96-.87,1.18-1.14,2.5-1.49,3.79-1.36,5.1-1.31,10.25-.24,15.38.29,1.38,0,2.25-1.03,3.19-5.94,5.46-11.27,11.49-16.33,17.77-.36.45-.73.91-1.17,1.26-4.62,3.66-14.82,3.59-19.63,0-1.64-1.23-.43-1.67.42-2.24,6.42-4.25,11-10.05,14.26-16.95,1.21-2.56,1.93-5.26,1.88-8.12-.02-1.18-.21-2.44-1.62-2.71-1.36-.26-1.83.92-2.3,1.87-2.76,5.61-5.38,11.32-9.8,15.9-5.41,5.59-11.74,9.44-19.69,10.06-7.7.6-14.18-1.79-18.63-7.61v8.39c3.12,2.32,6.78,3.94,10.97,4.85,1.6.35,3.84-.28,4.69.9.87,1.22.55,3.31.74,5.02,1.26,11.32,1.79,22.64.04,33.96-1.93,12.52-7.48,22.98-16.44,31.5v6.77c.44-.23.89,0,1.41.81.92,1.45,1.92,2.88,3.02,4.19,3.49,4.13,8.06,4.97,13.11,4.06,1.17-.21,2.26-.81,2.24-2.23-.02-1.28-1.01-1.88-2.09-2.15-1.04-.27-2.12-.46-3.19-.46-3.17,0-5.45-1.46-7.23-3.98-1.32-1.87-2.54-3.84-4.6-5.3.8-.62,1.39-1.03,1.94-1.49.55-.46,1.1-.93,1.59-1.45,9.83-10.36,15.3-22.62,16.14-36.92.62-10.52.31-20.98-1.86-31.32-.26-1.22.05-1.64,1.24-1.88,1.97-.39,3.94-.84,5.85-1.47,2.76-.91,6.55,1.96,6.35,4.84-.67,9.47-1.27,18.94.4,28.37.17.96-.24,1.67-.6,2.44-1.38,2.92-2.82,5.83-3.72,8.95-.21.75-.45,1.79.39,2.12.73.29,1.18-.67,1.53-1.27,2.78-4.79,5.72-9.49,8.24-14.42,4.83-9.45,10.47-18.36,16.86-26.8,5.26-6.95,10.98-13.49,17.25-19.55.41-.39.73-1.5,1.66-.75,1.28,1.03,1.23,3.17-.04,4.33-6.78,6.24-13.24,12.79-18.47,20.43-.63.92-2.29,2.11-1.1,3.02,1.3,1,2.11-.94,2.91-1.81,5.92-6.48,12.07-12.72,18.5-18.7,1.07-.99,1.67-1.16,2.6.23,1.57,2.33,3.53,4.39,5.76,6.08,1.46,1.1,1.55,1.61.02,2.82-8.73,6.89-16.14,14.92-20.88,25.14-.31.66-.54,1.08-1.39.93-.7-.12-1.5-.08-1.79.8-.29.92.31,1.53.94,2,1.71,1.28,3.73,1.82,5.79,2.21,10.24,1.94,20.56,2.11,30.91,1.25,3.54-.29,3.52-.35,4.44,3.03.45,1.65,1.82,3.83,1.21,4.81-.82,1.31-3.28.57-5.03.83-16.45,2.46-30.69,9.41-42.52,21.11-8.6,8.5-15.36,18.43-21.54,28.76-1.11,1.86-2.33,3.65-3.72,5.83-.13-2.79.27-5.25-.46-7.31-.9-2.5-.1-4.28.95-6.26,6.28-11.84,14.32-22.39,23.47-32.13,3.3-3.51,6.79-6.84,9.8-10.61.37-.46,1.07-.99.43-1.66-.49-.51-1.07-.07-1.58.17-1.78.82-3.38,1.92-4.84,3.2-12.73,11.1-22.84,24.23-30.47,39.28-.69,1.36-1.08,1.91-2.55.83-1.61-1.19-3.44-.85-5.09.13-.77.46-1.23,1.24-1.01,2.21.2.87.82,1.29,1.7,1.4,3.11.4,4.26,1.71,4.25,4.84,0,2.37-.11,4.74-.03,7.11.07,2.02-.39,3.89-2.17,4.84-1.87,1.01-3.61-.02-5.11-1.27-1.95-1.63-4.24-2.39-6.72-2.63-1.48-.14-2.89.19-3.98,1.27-.69.68-1.2,1.5-.65,2.5.5.92,1.38,1,2.26.73,2.09-.64,3.8.17,5.41,1.36.87.64,1.63,1.44,2.56,1.97,2.98,1.71,6.28,2.45,9.15.34,2.45-1.8,4.9-3.73,6.93-6.1,3.72-4.33,6.49-9.31,9.72-13.98,7.34-10.62,15.13-20.9,26.05-28.17,10.97-7.3,22.9-11.94,36.29-12.18,1.4-.03,2.16.37,2.88,1.63,4.25,7.49,9.8,13.84,17.13,18.46,7.11,4.48,14.75,6.27,23.08,4.21,18.05-4.48,31.39-27.73,19.79-45.41-.67-1.03-.28-1.48.6-2Zm-132.43,1.99c-.17-6.56.06-13.06.49-19.55.03-.52-.17-1.51.95-1.22,3.3.86,6.64.8,10.57.33-4.78,6.8-8.49,13.55-12.01,20.44Zm34.34,1.84c-4.19-.36-4.19-.38-1.86-3.91,1.58-2.4,3.33-4.67,5.24-6.82.37-.41.93-1.38,1.34-.16,1.42,4.29,3.99,7.86,7.15,11.52-4.21.07-8.04-.3-11.87-.63Z"/></svg>